<svg xmlns="http://www.w3.org/2000/svg" xmlns:ev="http://www.w3.org/2001/xml-events" xmlns:xlink="http://www.w3.org/1999/xlink" width="1241.347" height="786.716" class="st55" color-interpolation-filters="sRGB" viewBox="0 0 931.01 590.037" xml:space="preserve"><style type="text/css">.st1{fill:#fff;stroke:none}.st1,.st2,.st3{stroke-linecap:round;stroke-linejoin:round;stroke-width:.75}.st2{fill:#edf1fd;stroke:#0078d4;stroke-dasharray:5.25,3.75}.st3,.st4{fill:#bcbcbc;stroke:none}.st4{fill:#c5dff5;stroke-width:.25}.st5{fill:url(#grad0-13)}.st10,.st11,.st12,.st13,.st14,.st5{stroke:none;stroke-linecap:butt;stroke-width:.75}.st6{fill:none}.st6,.st7,.st8,.st9{stroke:none;stroke-linecap:butt;stroke-width:.75}.st7{fill:#341a6e}.st8{fill:url(#grad0-55)}.st9{fill:#50e6ff}.st10{fill:#1490df}.st11{fill:#b3b3b3}.st12{fill:url(#grad0-75)}.st13{fill:url(#grad0-88)}.st14{fill:url(#grad0-93)}.st15{fill-opacity:.2}.st15,.st16,.st17{fill:#fff;stroke:none;stroke-linecap:butt;stroke-width:.75}.st17{fill:none;stroke-linecap:round;stroke-linejoin:round}.st18{fill:#000;font-family:Segoe UI;font-size:1.00001em}.st19{fill:url(#grad0-108)}.st20,.st21,.st22{stroke:none;stroke-linecap:butt;stroke-width:.75}.st21{fill:url(#grad4-113)}.st22{fill:url(#grad0-117)}.st23{fill:none;stroke:#2da6ff;stroke-dasharray:7,5;stroke-width:1}.st24{fill:#005ba1}.st24,.st25,.st26{stroke:none;stroke-linecap:butt;stroke-width:34}.st25{fill:#50e6ff}.st26{fill:#c3f1ff}.st27{fill:#9cebff;stroke:none;stroke-linecap:butt}.st27,.st28,.st29,.st30{stroke-width:34}.st28,.st29,.st30,.st31,.st32,.st33{stroke:none;stroke-linecap:butt}.st28{fill:#0078d4}.st29{fill:url(#grad0-155)}.st30{fill:url(#grad0-169)}.st31{fill:url(#grad0-180)}.st31,.st32,.st33,.st34{stroke-width:.75}.st32{fill:url(#grad0-189)}.st33{fill:#f2f2f2}.st34{fill:#fff;stroke:#cadbfc;stroke-linecap:round;stroke-linejoin:round}.st35,.st36{stroke:none;stroke-width:.75}.st35{fill:url(#grad0-203);stroke-linecap:butt}.st36{fill:url(#grad0-211)}.st36,.st37,.st38{stroke-linecap:butt}.st37{fill:#0078d4;stroke:none;stroke-width:.75}.st38{fill:#5ea0ef}.st38,.st39,.st40{stroke:none;stroke-width:.75}.st39{fill:#fff;fill-opacity:.9;stroke-linecap:butt}.st40,.st41{fill:#e5e5e5;stroke-linecap:round;stroke-linejoin:round}.st41{fill:#c5dff5;stroke:#000;stroke-width:.25}.st42{font-size:1em}.st43{fill:url(#grad0-240);stroke:none;stroke-width:.75}.st43,.st44{stroke-linecap:butt}.st44,.st45,.st46{stroke:none;stroke-width:.75}.st44{fill:#005ba1}.st45,.st46{fill:#c5dff5;stroke-linecap:round;stroke-linejoin:round}.st46{fill:#0070c0}.st47{fill:#feffff;font-family:Segoe UI;font-size:1.00001em}.st48,.st49{stroke:#3c3c41}.st48{marker-end:url(#mrkr5-399);stroke-linecap:round;stroke-linejoin:round;stroke-width:1.5}.st49{fill:#3c3c41;fill-opacity:1;stroke-opacity:1;stroke-width:.37313432835821}.st50,.st51{stroke-linecap:round;stroke-linejoin:round}.st50{marker-end:url(#mrkr5-399);marker-start:url(#mrkr5-406);stroke:#3c3c41;stroke-width:1.5}.st51{fill:#cff0c7;stroke:none;stroke-width:.75}.st52{fill:#000;font-family:Segoe UI;font-size:1.33333em}.st53{marker-end:url(#mrkr5-498);stroke:red;stroke-dasharray:4.5,4.5;stroke-linecap:round;stroke-linejoin:round;stroke-width:1.5}.st54{fill:red;fill-opacity:1;stroke:red;stroke-opacity:1;stroke-width:.37313432835821}.st55{fill:none;fill-rule:evenodd;font-size:12px;overflow:visible;stroke-linecap:square;stroke-miterlimit:3}</style><defs id="Patterns_And_Gradients"><linearGradient id="grad0-13" x1="0" x2="1" y1="0" y2="0" gradientTransform="rotate(0 0.5 0.5)"><stop offset="0" stop-color="#b77af4" stop-opacity="1"/><stop offset="1" stop-color="#773adc" stop-opacity="1"/></linearGradient><linearGradient id="grad0-55" x1="0" x2="1" y1="0" y2="0" gradientTransform="rotate(-90 0.5 0.5)"><stop offset="0" stop-color="#5e9624" stop-opacity="1"/><stop offset=".24" stop-color="#6fb02a" stop-opacity="1"/><stop offset=".5" stop-color="#7cc52f" stop-opacity="1"/><stop offset=".755" stop-color="#83d232" stop-opacity="1"/><stop offset="1" stop-color="#86d633" stop-opacity="1"/></linearGradient><linearGradient id="grad0-75" x1="0" x2="1" y1="0" y2="0" gradientTransform="rotate(90 0.5 0.5)"><stop offset="0" stop-color="#50e6ff" stop-opacity="1"/><stop offset="1" stop-color="#32bedd" stop-opacity="1"/></linearGradient><linearGradient id="grad0-88" x1="0" x2="1" y1="0" y2="0" gradientTransform="rotate(-90 0.5 0.5)"><stop offset="0" stop-color="#5e9624" stop-opacity="1"/><stop offset=".185" stop-color="#629c25" stop-opacity="1"/><stop offset=".435" stop-color="#6dae2a" stop-opacity="1"/><stop offset=".725" stop-color="#7fcb30" stop-opacity="1"/><stop offset=".82" stop-color="#86d633" stop-opacity="1"/></linearGradient><linearGradient id="grad0-93" x1="0" x2="1" y1="0" y2="0" gradientTransform="rotate(88.546233687646 0.5 0.5)"><stop offset=".22" stop-color="#32d4f5" stop-opacity="1"/><stop offset=".47" stop-color="#31d1f3" stop-opacity="1"/><stop offset=".63" stop-color="#2ec9eb" stop-opacity="1"/><stop offset=".77" stop-color="#29bade" stop-opacity="1"/><stop offset=".89" stop-color="#22a5cb" stop-opacity="1"/><stop offset="1" stop-color="#198ab3" stop-opacity="1"/><stop offset="1" stop-color="#198ab3" stop-opacity="1"/></linearGradient><linearGradient id="grad0-108" x1="0" x2="1" y1="0" y2="0" gradientTransform="rotate(-90 0.5 0.5)"><stop offset="0" stop-color="#005ba1" stop-opacity="1"/><stop offset="1" stop-color="#0078d4" stop-opacity="1"/></linearGradient><radialGradient id="grad4-113" cx=".5" cy="0" r="1.1"><stop offset="0" stop-color="gray" stop-opacity="1"/><stop offset=".19" stop-color="#a1a1a1" stop-opacity="1"/><stop offset=".4" stop-color="silver" stop-opacity="1"/><stop offset=".52" stop-color="#ccc" stop-opacity="1"/><stop offset=".63" stop-color="#c9c9c9" stop-opacity="1"/><stop offset=".715" stop-color="#bfbfbf" stop-opacity="1"/><stop offset=".785" stop-color="#afafaf" stop-opacity="1"/><stop offset=".85" stop-color="#999" stop-opacity="1"/><stop offset=".91" stop-color="gray" stop-opacity="1"/></radialGradient><linearGradient id="grad0-117" x1="0" x2="1" y1="0" y2="0" gradientTransform="rotate(-90 0.5 0.5)"><stop offset="0" stop-color="#5ea0ef" stop-opacity="1"/><stop offset="1" stop-color="#83b9f9" stop-opacity="1"/></linearGradient><linearGradient id="grad0-155" x1="0" x2="1" y1="0" y2="0" gradientTransform="rotate(-90 0.5 0.5)"><stop offset="0" stop-color="#0078d4" stop-opacity="1"/><stop offset=".82" stop-color="#5ea0ef" stop-opacity="1"/></linearGradient><linearGradient id="grad0-169" x1="0" x2="1" y1="0" y2="0" gradientTransform="rotate(-90 0.5 0.5)"><stop offset=".15" stop-color="#ccc" stop-opacity="1"/><stop offset="1" stop-color="#707070" stop-opacity="1"/></linearGradient><linearGradient id="grad0-180" x1="0" x2="1" y1="0" y2="0" gradientTransform="rotate(-90 0.5 0.5)"><stop offset="0" stop-color="#0078d4" stop-opacity="1"/><stop offset=".155" stop-color="#1380da" stop-opacity="1"/><stop offset=".53" stop-color="#3c91e5" stop-opacity="1"/><stop offset=".82" stop-color="#559cec" stop-opacity="1"/><stop offset="1" stop-color="#5ea0ef" stop-opacity="1"/></linearGradient><linearGradient id="grad0-189" x1="0" x2="1" y1="0" y2="0" gradientTransform="rotate(90 0.5 0.5)"><stop offset="0" stop-color="#5ea0ef" stop-opacity="1"/><stop offset=".18" stop-color="#559cec" stop-opacity="1"/><stop offset=".47" stop-color="#3c91e5" stop-opacity="1"/><stop offset=".84" stop-color="#1380da" stop-opacity="1"/><stop offset="1" stop-color="#0078d4" stop-opacity="1"/></linearGradient><linearGradient id="grad0-203" x1="0" x2="1" y1="0" y2="0" gradientTransform="rotate(-97.288043508426 0.5 0.5)"><stop offset=".15" stop-color="#0078d4" stop-opacity="1"/><stop offset=".8" stop-color="#5ea0ef" stop-opacity="1"/><stop offset="1" stop-color="#83b9f9" stop-opacity="1"/></linearGradient><linearGradient id="grad0-211" x1="0" x2="1" y1="0" y2="0" gradientTransform="rotate(-90 0.5 0.5)"><stop offset="0" stop-color="#32bedd" stop-opacity="1"/><stop offset=".775" stop-color="#32d4f5" stop-opacity="1"/></linearGradient><linearGradient id="grad0-240" x1="0" x2="1" y1="0" y2="0" gradientTransform="rotate(-90 0.5 0.5)"><stop offset="0" stop-color="#32bedd" stop-opacity="1"/><stop offset=".18" stop-color="#32caea" stop-opacity="1"/><stop offset=".41" stop-color="#32d2f2" stop-opacity="1"/><stop offset=".78" stop-color="#32d4f5" stop-opacity="1"/></linearGradient></defs><defs id="Markers"><g id="lend5"><path style="stroke:none" d="M 2 1 L 0 0 L 1.98117 -0.993387 C 1.67173 -0.364515 1.67301 0.372641 1.98465 1.00043"/></g><marker id="mrkr5-399" class="st49" markerUnits="strokeWidth" orient="auto" overflow="visible" refX="-4.69"><use transform="scale(-2.68,-2.68)" xlink:href="#lend5"/></marker><marker id="mrkr5-406" class="st49" markerUnits="strokeWidth" orient="auto" overflow="visible" refX="4.45"><use transform="scale(2.68)" xlink:href="#lend5"/></marker><marker id="mrkr5-498" class="st54" markerUnits="strokeWidth" orient="auto" overflow="visible" refX="-4.69"><use transform="scale(-2.68,-2.68)" xlink:href="#lend5"/></marker></defs><g><title>VBackground-1</title><g id="shape1-1"><title>Solid</title><rect width="931.01" height="590.037" x="0" y="0" class="st1"/></g></g><g><title>hyperscale-architecture</title><g id="shape121-3" transform="translate(48.6348,-272.412)"><title>Sheet.121</title><rect width="864" height="299.25" x="0" y="290.787" class="st2" rx="18" ry="18"/></g><g id="shape205-5" transform="translate(84.6348,-288)"><title>Sheet.205</title><rect width="801" height="171.162" x="0" y="418.875" class="st3" rx="18" ry="18"/></g><g id="shape9-7" transform="translate(77.6348,-132.457)"><title>圆角矩形.58</title><path d="M13.16 590.04 L767.84 590.04 A13.1615 13.1615 -180 0 0 781 576.88 L781 478.99 A13.1615 13.1615 -180 0 0 767.84 465.83 L13.16 465.83 A13.1615 13.1615 -180 0 0 0 478.99 L0 576.88 A13.1615 13.1615 -180 0 0 13.16 590.04 Z" class="st4"/></g><g id="group10-9" transform="translate(30.6348,-266.767)"><title>Kubernetes 服务.60</title><g id="shape11-10" transform="translate(7.59885,-29.9807)"><title>Sheet.11</title><path d="M7.39 576.12 L0 577.59 L0 588.35 L7.39 590.04 L14.81 586.86 L14.81 578.83 L7.39 576.12 Z" class="st5"/></g><g id="shape12-14" transform="translate(7.75393,-30.1141)"><title>Sheet.12</title><path d="M7.52 590 L14.29 587.08 a0.516928 0.552131 -180 0 0 0.310157 -0.386492 L14.6 579.4 a0.542775 0.579738 -180 0 0 -0.336003 -0.496918 L7.42 576.42 L7.11 576.42 L0.39 577.75 a0.516928 0.552131 -180 0 0 -0.387696 0.496918 L0 587.99 a0.491082 0.524524 -180 0 0 0.387696 0.524524 L7.19 590.03 a0.827085 0.88341 -180 0 0 0.336003 -0.0276066 Z" class="st6"/></g><g id="shape13-16" transform="translate(7.59885,-29.9807)"><title>Sheet.13</title><path d="M0 577.59 L0 588.35 L7.47 590.04 L7.47 576.23 L0 577.59 ZM3.15 587.52 L1.06 587.08 L1.06 578.8 L3.15 578.44 L3.15 587.52 ZM6.41 588.16 L4.01 587.75 L4.01 578.28 L6.41 577.83 L6.41 588.16 Z" class="st7"/></g><g id="shape14-18" transform="translate(23.5978,-29.8427)"><title>Sheet.14</title><path d="M7.39 576.12 L0 577.59 L0 588.35 L7.39 590.04 L14.78 586.83 L14.78 578.83 L7.39 576.12 Z" class="st5"/></g><g id="shape15-21" transform="translate(23.5978,-29.8427)"><title>Sheet.15</title><path d="M0 577.59 L0 588.35 L7.42 590.04 L7.42 576.23 L0 577.59 ZM3.13 587.52 L1.03 587.08 L1.03 578.8 L3.13 578.44 L3.13 587.52 ZM6.38 588.16 L3.98 587.75 L3.98 578.28 L6.38 577.81 L6.38 588.16 Z" class="st7"/></g><g id="shape16-23" transform="translate(0.0258464,-15.1284)"><title>Sheet.16</title><path d="M7.39 576.12 L0 577.59 L0 588.35 L7.39 590.04 L14.81 586.86 L14.81 578.83 L7.39 576.12 Z" class="st5"/></g><g id="shape17-26" transform="translate(4.64628E-14,-15.2112)"><title>Sheet.17</title><path d="M0 577.67 L0 588.35 L7.47 590.04 L7.47 576.23 L0 577.67 ZM3.13 587.64 L1.03 587.17 L1.03 578.88 L3.13 578.5 L3.13 587.64 ZM6.41 588.35 L4.01 587.94 L4.01 578.36 L6.41 577.92 L6.41 588.35 Z" class="st7"/></g><g id="shape18-28" transform="translate(15.9731,-15.2112)"><title>Sheet.18</title><path d="M7.39 576.1 L0 577.56 L0 588.33 L7.39 590.04 L14.78 586.83 L14.78 578.8 L7.39 576.1 Z" class="st5"/></g><g id="shape19-31" transform="translate(15.9731,-15.2112)"><title>Sheet.19</title><path d="M0 577.56 L0 588.35 L7.44 590.04 L7.44 576.23 L0 577.56 ZM3.13 587.52 L1.03 587.06 L1.03 578.77 L3.13 578.39 L3.13 587.52 ZM6.38 588.13 L3.98 587.72 L3.98 578.25 L6.38 577.81 L6.38 588.13 Z" class="st7"/></g><g id="shape20-33" transform="translate(31.9203,-15.1008)"><title>Sheet.20</title><path d="M7.39 576.12 L0 577.59 L0 588.35 L7.39 590.04 L14.81 586.86 L14.81 578.83 L7.39 576.12 Z" class="st5"/></g><g id="shape21-36" transform="translate(31.9203,-15.2112)"><title>Sheet.21</title><path d="M0 577.7 L0 588.35 L7.47 590.04 L7.47 576.23 L0 577.7 ZM3.15 587.66 L1.06 587.19 L1.06 578.91 L3.15 578.52 L3.15 587.66 ZM6.41 588.27 L4.01 587.86 L4.01 578.39 L6.41 577.95 L6.41 588.27 Z" class="st7"/></g><g id="shape22-38" transform="translate(7.41792,-0.110426)"><title>Sheet.22</title><path d="M7.39 576.12 L0 577.56 L0 588.33 L7.39 590.04 L14.81 586.83 L14.81 578.83 L7.39 576.12 Z" class="st5"/></g><g id="shape23-41" transform="translate(7.54716,-0.301157)"><title>Sheet.23</title><path d="M7.55 590.01 L14.29 587.25 a0.465236 0.496918 -180 0 0 0.310157 -0.496918 L14.6 579.57 a0.516928 0.552131 -180 0 0 -0.336003 -0.607344 L7.44 576.48 a0.439389 0.469311 -180 0 0 -0.310157 0 L0.41 577.78 a0.491082 0.524524 -180 0 0 -0.413543 0.524524 L0 588.07 a0.491082 0.524524 -180 0 0 0.387696 0.524524 L7.19 590.01 a0.594468 0.634951 -180 0 0 0.36185 0 Z" class="st6"/></g><g id="shape24-43" transform="translate(7.41792,-0.110426)"><title>Sheet.24</title><path d="M0 577.56 L0 588.33 L7.47 590.04 L7.47 576.01 L0 577.56 ZM3.15 587.52 L1.06 587.06 L1.06 578.77 L3.15 578.39 L3.15 587.52 ZM6.41 588.16 L4.01 587.75 L4.01 578.25 L6.41 577.81 L6.41 588.16 Z" class="st7"/></g><g id="shape25-45" transform="translate(23.391,-2.27374E-13)"><title>Sheet.25</title><path d="M7.39 576.12 L0 577.59 L0 588.35 L7.39 590.04 L14.81 586.86 L14.81 578.83 L7.39 576.12 Z" class="st5"/></g><g id="shape26-48" transform="translate(23.391,-2.27374E-13)"><title>Sheet.26</title><path d="M0 577.59 L0 588.35 L7.47 590.04 L7.47 576.23 L0 577.59 ZM3.15 587.55 L1.06 587.08 L1.06 578.8 L3.15 578.41 L3.15 587.55 ZM6.41 588.16 L4.01 587.75 L4.01 578.28 L6.41 577.83 L6.41 588.16 Z" class="st7"/></g></g><g id="group27-50" transform="translate(812.985,-134.98)"><title>地址空间菜单</title><g id="group28-51"><title>Sheet.28</title><g id="shape29-52" transform="translate(12.0676,-9.03655)"><title>Sheet.29</title><path d="M2.02 585.19 A2.86373 2.83645 -180 1 0 4.88 588.01 A2.85276 2.82558 -180 0 0 2.02 585.19 Z" class="st8"/></g><g id="group30-56"><title>Sheet.30</title><g id="shape31-57" transform="translate(419.581,993.285) rotate(134.919)"><title>Sheet.31</title><path d="M0.62 573.87 L2.56 573.87 a0.620241 0.620258 0 0 1 0.620241 0.620258 L3.18 588.8 A1.24048 1.24052 0 0 1 1.94 590.04 L0 590.04 L0 574.49 a0.620241 0.620258 0 0 1 0.620241 -0.622442 Z" class="st9"/></g><g id="shape32-59" transform="translate(416.145,161.118) rotate(44.919)"><title>Sheet.32</title><path d="M0.61 574.1 L2.55 574.1 a0.620258 0.620241 0 0 1 0.620258 0.620241 L3.17 590.04 L1.24 590.04 A1.24052 1.24048 0 0 1 -0 588.8 L0 574.72 a0.620258 0.620241 0 0 1 0.620258 -0.620241 L0.61 574.1 Z" class="st10"/></g><g id="shape33-61" transform="translate(441.889,171.445) rotate(45.081)"><title>Sheet.33</title><path d="M0 573.87 L1.94 573.87 A1.24048 1.24052 0 0 1 3.18 575.11 L3.18 589.42 a0.620241 0.620258 0 0 1 -0.620241 0.620258 L0.62 590.04 a0.620241 0.620258 0 0 1 -0.620241 -0.620258 L0 573.87 Z" class="st9"/></g><g id="shape34-63" transform="translate(443.157,985.443) rotate(135.081)"><title>Sheet.34</title><path d="M1.24 574.1 L3.18 574.1 L3.18 589.42 a0.620258 0.620241 0 0 1 -0.620258 0.620241 L0.62 590.04 a0.620258 0.620241 0 0 1 -0.620258 -0.620241 L0 575.34 A1.24052 1.24048 0 0 1 1.24 574.1 L1.24 574.1 Z" class="st10"/></g></g><g id="shape35-65" transform="translate(21.2842,-9.03655)"><title>Sheet.35</title><path d="M2.02 585.19 A2.86373 2.83645 -180 1 0 4.88 588.01 A2.85276 2.82558 -180 0 0 2.02 585.19 Z" class="st8"/></g></g></g><g id="group36-68" transform="translate(303.49,-157.273)"><title>Sheet.36</title><g id="group37-69"><title>Sheet.37</title><g id="shape38-70" transform="translate(21.3561,-27.1194)"><title>Sheet.38</title><path d="M1.1 590.03 A4.03276 4.03276 -180 1 0 6.76 584.28 A3.97939 3.97939 -180 0 0 5.3 583.38 L5.3 566.06 L2.72 566.06 L2.72 583.33 A4.01188 4.01188 -180 0 0 1.1 590.04 L1.1 590.03 Z" class="st11"/></g><g id="shape39-72" transform="translate(21.2899,-48.9237)"><title>Sheet.39</title><ellipse cx="4.033" cy="586.004" class="st12" rx="4.033" ry="4.033"/></g><g id="group40-76"><title>Sheet.40</title><g id="shape41-77" transform="translate(427.908,970.395) rotate(134.919)"><title>Sheet.41</title><path d="M6.11 571.92 L8.28 571.92 a0.696104 0.696104 0 0 1 0.696104 0.696104 L8.98 588.64 A1.39221 1.39221 0 0 1 7.59 590.04 L5.41 590.04 L5.41 572.61 a0.696104 0.696104 0 0 1 0.696104 -0.696104 Z" class="st9"/></g><g id="shape42-79" transform="translate(416.629,138.547) rotate(44.919)"><title>Sheet.42</title><path d="M5.99 572.17 L8.16 572.17 a0.696104 0.696104 0 0 1 0.696104 0.696104 L8.86 590.04 L6.68 590.04 A1.39221 1.39221 0 0 1 5.29 588.64 L5.29 572.87 a0.696104 0.696104 0 0 1 0.698424 -0.696104 Z" class="st10"/></g><g id="shape43-81" transform="translate(425.797,130.545) rotate(45.081)"><title>Sheet.43</title><path d="M32.79 571.92 L34.97 571.92 A1.39221 1.39221 0 0 1 36.36 573.31 L36.36 589.34 a0.696104 0.696104 0 0 1 -0.696104 0.696104 L33.49 590.04 a0.696104 0.696104 0 0 1 -0.696104 -0.696104 L32.79 571.92 Z" class="st9"/></g><g id="shape44-83" transform="translate(473.821,942.007) rotate(135.081)"><title>Sheet.44</title><path d="M34.3 572.17 L36.47 572.17 L36.47 589.34 a0.696104 0.696104 0 0 1 -0.696104 0.696104 L33.6 590.04 a0.696104 0.696104 0 0 1 -0.696104 -0.696104 L32.91 573.56 A1.39221 1.39221 0 0 1 34.3 572.17 Z" class="st10"/></g></g><g id="shape45-85" transform="translate(21.2458,-25.9592)"><title>Sheet.45</title><ellipse cx="4.033" cy="586.004" class="st13" rx="4.033" ry="4.033"/></g></g></g><g id="group48-89" transform="translate(471.682,-170.272)"><title>Virtual Network Gateways</title><g id="shape49-90"><title>Sheet.49</title><path d="M29.01 568.84 L26.75 568.84 L26.75 561.89 A13.1264 13.1264 -180 0 0 23.38 553.03 A10.822 10.822 -180 0 0 15.11 549.26 A10.822 10.822 -180 0 0 6.76 553.03 A12.9457 12.9457 -180 0 0 3.39 561.89 L3.39 568.84 L1.56 568.84 A1.5815 1.5815 -180 0 0 -0 570.4 L0 588.48 A1.5815 1.5815 -180 0 0 1.56 590.04 L29.01 590.04 A1.60409 1.60409 -180 0 0 30.59 588.48 L30.59 570.4 A1.60409 1.60409 -180 0 0 29.01 568.84 ZM21.4 568.84 L8.83 568.84 L8.83 561.77 A7.18453 7.18453 0 0 1 10.8 556.92 A5.6708 5.6708 0 0 1 15.05 554.97 A5.73858 5.73858 0 0 1 19.32 556.92 A7.20712 7.20712 0 0 1 20.04 557.89 A6.77785 6.77785 0 0 1 21.42 561.75 L21.4 568.84 Z" class="st14"/></g><g id="shape50-94" transform="translate(0.587414,-0.47445)"><title>Sheet.50</title><path d="M28.49 569.32 L0.99 569.32 A1.49113 1.49113 -180 0 0 0 569.7 L29.48 590.04 A1.51372 1.51372 -180 0 0 30.05 588.86 L30.05 570.79 A1.60409 1.60409 -180 0 0 28.49 569.32 Z" class="st9"/></g><g id="shape51-96" transform="translate(0.0451857,-0.47445)"><title>Sheet.51</title><path d="M1.58 569.32 L29.05 569.32 A1.5815 1.5815 0 0 1 30.07 569.7 L0.56 590.04 A1.5815 1.5815 0 0 1 0 588.86 L0 570.79 A1.62668 1.62668 0 0 1 1.58 569.32 Z" class="st15"/></g><g id="shape52-98" transform="translate(3.88597,-1.71635)"><title>Sheet.52</title><path d="M8.72 574.92 L11.43 572.21 a0.15815 0.15815 0 0 1 0.203336 1.13687E-13 L14.32 574.92 a0.135557 0.135557 0 0 1 -1.42109E-14 0.225928 L12.74 575.15 a0.135557 0.135557 -180 0 0 -0.135557 0.135557 L12.61 578.76 a0.135557 0.135557 0 0 1 -0.135557 0.135557 L10.69 578.9 a0.112964 0.112964 0 0 1 -0.135557 -0.135557 L10.55 575.28 a0.15815 0.15815 -180 0 0 -0.15815 -0.135557 L8.81 575.15 a0.135557 0.135557 0 0 1 -0.0903714 -0.225928 ZM14.3 587.3 L11.61 589.99 a0.135557 0.135557 0 0 1 -0.203336 0 L8.72 587.3 a0.135557 0.135557 0 0 1 2.66454E-14 -0.225928 L10.3 587.08 a0.15815 0.15815 -180 0 0 0.15815 -0.135557 L10.46 583.44 a0.135557 0.135557 0 0 1 0.135557 -0.135557 L12.27 583.3 a0.135557 0.135557 0 0 1 0.135557 0.135557 L12.4 586.94 a0.135557 0.135557 -180 0 0 0.135557 0.135557 L14.12 587.08 a0.144665 0.144665 0 1 1 0.180743 0.225928 ZM3.68 583.8 L3.68 582.22 a0.135557 0.135557 -180 0 0 -0.135557 -0.135557 L0.14 582.08 a0.135557 0.135557 0 0 1 -0.135557 -0.135557 L0 580.34 a0.135557 0.135557 0 0 1 0.135557 -0.203336 L3.55 580.14 a0.135557 0.135557 -180 0 0 0.135557 -0.135557 L3.68 578.42 a0.15815 0.15815 0 0 1 0.248521 -0.112964 L6.62 581.02 a0.135557 0.135557 0 0 1 4.61853E-14 0.180743 L3.93 583.91 a0.15815 0.15815 0 0 1 -0.248521 -0.112964 ZM19.34 578.42 L19.34 580 a0.135557 0.135557 -180 0 0 0.135557 0.135557 L22.95 580.14 C22.95 580.14 23.11 580.14 23.11 580.28 L23.11 581.95 a0.15815 0.15815 0 0 1 -0.15815 0.135557 L19.48 582.08 a0.135557 0.135557 -180 0 0 -0.135557 0.135557 L19.34 583.8 a0.135557 0.135557 0 0 1 -0.225928 0.112964 L16.42 581.2 L16.42 581.02 L19.11 578.31 C19.11 578.31 19.34 578.29 19.34 578.42 Z" class="st16"/></g></g><g id="shape74-100" transform="translate(678.635,-134.412)"><title>Sheet.74</title><desc>VNet - 192.168.0.0/16</desc><rect width="143" height="23.25" x="0" y="566.787" class="st17"/><text x="13.84" y="582.01" class="st18">VNet - 192.168.0.0/16</text></g><g id="group75-103" transform="translate(547.25,-151.662)"><title>Sheet.75</title><g id="group1-104" transform="translate(30.3848,-23.8028)"><title>Sheet.1</title><g id="shape2-105" transform="translate(0,-3.06144)"><title>Sheet.2</title><path d="M46.73 569.63 C46.73 569.36 46.66 569.09 46.52 568.84 L35.64 549.99 C35.36 549.5 34.84 549.21 34.28 549.2 L12.52 549.2 C11.96 549.21 11.44 549.51 11.16 550 L0.28 568.83 C0 569.31 0 569.91 0.28 570.4 L11.16 589.24 C11.44 589.73 11.96 590.03 12.52 590.04 L34.28 590.04 C34.84 590.03 35.36 589.73 35.64 589.24 L46.52 570.41 C46.66 570.17 46.73 569.9 46.73 569.63 L46.73 569.63 Z" class="st19"/><path d="M46.73 569.63 C46.73 569.36 46.66 569.09 46.52 568.84 L35.64 549.99 C35.36 549.5 34.84 549.21 34.28 549.2 L12.52 549.2 C11.96 549.21 11.44 549.51 11.16 550 L0.28 568.83 C0 569.31 0 569.91 0.28 570.4 L11.16 589.24 C11.44 589.73 11.96 590.03 12.52 590.04 L34.28 590.04 C34.84 590.03 35.36 589.73 35.64 589.24 L46.52 570.41 C46.66 570.17 46.73 569.9 46.73 569.63" class="st20"/></g><g id="shape3-110" transform="translate(7.03534,-3.68357)"><title>Sheet.3</title><path d="M32.87 584.27 L17.94 569.35 L17.94 569.19 L17.79 569.19 L17.5 568.9 L17.21 569.19 L15.7 569.19 L15.28 568.78 L0 584.28 L2.17 586.42 L14.89 573.53 L14.89 590.04 L17.94 590.04 L17.94 573.66 L30.71 586.43 L32.87 584.27 Z" class="st21"/></g><g id="shape4-114" transform="translate(19.7684,2.27374E-13)"><title>uuid-ece1a08e-bbe9-4a7a-9146-1f</title><ellipse cx="3.684" cy="586.353" class="st22" rx="3.684" ry="3.684"/></g><g id="shape5-118" transform="translate(17.1088,-17.4095)"><title>Sheet.5</title><path d="M0.02 583.63 C0 587.14 2.82 589.99 6.33 590.02 C9.83 590.04 12.69 587.21 12.71 583.71 C12.73 580.85 10.83 578.33 8.07 577.56 L8.07 573.02 C9.98 572.04 10.73 569.69 9.74 567.78 C8.76 565.87 6.41 565.13 4.5 566.11 C2.59 567.1 1.85 569.44 2.83 571.35 C3.2 572.07 3.78 572.65 4.5 573.02 L4.5 577.67 C1.87 578.47 0.05 580.88 0.02 583.63 Z" class="st16"/></g><g id="shape6-120" transform="translate(19.7684,-20.108)"><title>uuid-8e562190-eca9-4949-bb17-df</title><ellipse cx="3.684" cy="586.353" class="st22" rx="3.684" ry="3.684"/></g><g id="shape7-123" transform="translate(4.43792,-4.68418)"><title>uuid-fde97792-49bb-484d-abc1-e7</title><ellipse cx="3.684" cy="586.353" class="st22" rx="3.684" ry="3.684"/></g><g id="shape8-126" transform="translate(35.143,-4.68418)"><title>uuid-e202974c-be82-433a-a8e4-94</title><ellipse cx="3.684" cy="586.353" class="st22" rx="3.684" ry="3.684"/></g></g><g id="shape72-129" transform="translate(5.5,-0.75)"><title>圆角矩形.257</title><path d="M1.63 590.04 L94.87 590.04 A1.62623 1.62623 -180 0 0 96.5 588.41 L96.5 514.41 A1.62623 1.62623 -180 0 0 94.87 512.79 L1.63 512.79 A1.62623 1.62623 -180 0 0 -0 514.41 L0 588.41 A1.62623 1.62623 -180 0 0 1.63 590.04 Z" class="st23"/></g><g id="shape73-131"><title>Sheet.73</title><desc>192.168.2.0/24</desc><rect width="107.5" height="23.25" x="0" y="566.787" class="st17"/><text x="15.17" y="582.01" class="st18">192.168.2.0/24</text></g></g><g id="group112-134" transform="translate(147.635,-150.912)"><title>Sheet.112</title><g id="group53-135" transform="translate(29.2188,-20.625)"><title>Sheet.53</title><g id="shape54-136" transform="translate(0,-29.5818)"><title>Sheet.54</title><path d="M0 589.06 a0.981273 0.981273 -180 0 0 0.98125 0.98125 L28.2 590.04 a0.981273 0.981273 -180 0 0 0.98125 -0.98125 L29.18 571.54 a0.981273 0.981273 -180 0 0 -0.98125 -0.98125 L0.98 570.56 a0.981273 0.981273 -180 0 0 -0.98125 0.98125 L0 589.06 Z" class="st24"/></g><g id="shape55-138" transform="translate(14.6033,-33.6511)"><title>Sheet.55</title><path d="M4.85 581.52 L4.85 587.21 L0 590.04 L0 584.38 L4.85 581.52 Z" class="st25"/></g><g id="shape56-140" transform="translate(9.72592,-39.3077)"><title>Sheet.56</title><path d="M9.73 587.18 L4.88 590.04 L0 587.18 L4.88 584.32 L9.73 587.18 Z" class="st26"/></g><g id="shape57-142" transform="translate(9.72592,-33.6511)"><title>Sheet.57</title><path d="M4.88 584.38 L4.88 590.04 L0 587.21 L0 581.52 L4.88 584.38 Z" class="st27"/></g><g id="shape58-144" transform="translate(11.4575,-18.4129)"><title>Sheet.58</title><path d="M0 589.06 a0.981273 0.981273 -180 0 0 0.98125 0.98125 L28.2 590.04 a0.981273 0.981273 -180 0 0 0.98125 -0.98125 L29.18 571.54 a0.981273 0.981273 -180 0 0 -0.98125 -0.98125 L0.98 570.56 a0.981273 0.981273 -180 0 0 -0.98125 0.98125 L0 589.06 Z" class="st28"/></g><g id="shape59-146" transform="translate(26.0608,-22.4533)"><title>Sheet.59</title><path d="M4.85 581.52 L4.85 587.18 L0 590.04 L0 584.35 L4.85 581.52 Z" class="st25"/></g><g id="shape60-148" transform="translate(21.1835,-28.1388)"><title>Sheet.60</title><path d="M9.73 587.21 L4.88 590.04 L0 587.21 L4.88 584.35 L9.73 587.21 Z" class="st26"/></g><g id="shape61-150" transform="translate(21.1835,-22.4533)"><title>Sheet.61</title><path d="M4.88 584.35 L4.88 590.04 L0 587.18 L0 581.52 L4.88 584.35 Z" class="st27"/></g><g id="shape62-152" transform="translate(19.8847,-7.5614)"><title>Sheet.62</title><path d="M0 589.06 a0.981273 0.981273 -180 0 0 0.98125 0.98125 L28.2 590.04 a0.981273 0.981273 -180 0 0 0.98125 -0.98125 L29.18 571.54 a0.981273 0.981273 -180 0 0 -0.98125 -0.98125 L0.98 570.56 a0.981273 0.981273 -180 0 0 -0.98125 0.98125 L0 589.06 Z" class="st29"/></g><g id="shape63-156" transform="translate(34.488,-11.6018)"><title>Sheet.63</title><path d="M4.85 581.52 L4.85 587.18 L0 590.04 L0 584.35 L4.85 581.52 Z" class="st25"/></g><g id="shape64-158" transform="translate(29.6107,-17.2585)"><title>Sheet.64</title><path d="M9.73 587.18 L4.88 590.04 L0 587.18 L4.88 584.32 L9.73 587.18 Z" class="st26"/></g><g id="shape65-160" transform="translate(29.6107,-11.6018)"><title>Sheet.65</title><path d="M4.88 584.38 L4.88 590.04 L0 587.18 L0 581.52 L4.88 584.38 Z" class="st27"/></g><g id="shape66-162" transform="translate(29.6107,-11.6018)"><title>Sheet.66</title><path d="M0 587.18 L4.88 584.35 L4.88 590.04 L0 587.18 Z" class="st26"/></g><g id="shape67-164" transform="translate(34.488,-11.6018)"><title>Sheet.67</title><path d="M4.85 587.18 L0 584.35 L0 590.04 L4.85 587.18 Z" class="st27"/></g><g id="shape68-166" transform="translate(27.3307,2.27374E-13)"><title>Sheet.68</title><path d="M12.99 588.39 C10.1 587.93 10.1 585.85 10.1 582.62 L4.33 582.62 C4.33 585.97 4.33 588.05 1.44 588.39 A1.70276 1.70276 -180 0 0 0 590.04 L14.43 590.04 A1.70276 1.70276 -180 0 0 12.99 588.39 Z" class="st30"/></g></g><g id="shape76-170" transform="translate(5.5,-2.25)"><title>圆角矩形.257</title><path d="M1.63 590.04 L94.87 590.04 A1.62623 1.62623 -180 0 0 96.5 588.41 L96.5 514.41 A1.62623 1.62623 -180 0 0 94.87 512.79 L1.63 512.79 A1.62623 1.62623 -180 0 0 -0 514.41 L0 588.41 A1.62623 1.62623 -180 0 0 1.63 590.04 Z" class="st23"/></g><g id="shape77-172"><title>Sheet.77</title><desc>192.168.1.0/24</desc><rect width="107.5" height="23.25" x="0" y="566.787" class="st17"/><text x="15.17" y="582.01" class="st18">192.168.1.0/24</text></g></g><g id="group113-175" transform="translate(552.875,-19.0505)"><title>Sheet.113</title><g id="group46-176" transform="translate(19.325,-24.8995)"><title>云菜单</title><g id="shape47-177"><title>Sheet.47</title><path d="M57.6 577.25 A12.9351 12.9351 -180 0 0 46.37 564.81 A16.3112 16.3112 -180 0 0 29.57 549.21 A16.7316 16.7316 -180 0 0 13.58 560.12 A15.4413 15.4413 -180 0 0 -0 574.99 A15.6709 15.6709 -180 0 0 16.22 590.04 C16.71 590.04 17.19 590.01 17.65 589.98 L43.91 589.98 A2.73254 2.73254 -180 0 0 44.61 589.87 A13.0936 13.0936 -180 0 0 57.6 577.25 Z" class="st31"/></g></g><g id="shape79-181"><title>Sheet.79</title><desc>Internet</desc><rect width="96.25" height="23.25" x="0" y="566.787" class="st17"/><text x="27.31" y="582.01" class="st18">Internet</text></g></g><g id="group114-184" transform="translate(438.875,-18.375)"><title>Sheet.114</title><g id="group69-185" transform="translate(34.625,-21.1737)"><title>Exhange On-Premises.1968</title><g id="shape70-186"><title>Sheet.70</title><path d="M27 545.68 L27 588.5 A1.512 1.512 0 0 1 25.49 590.04 L1.54 590.04 A1.512 1.512 0 0 1 -0 588.5 L0 545.68 A1.512 1.512 0 0 1 1.54 544.14 L25.46 544.14 A1.512 1.512 0 0 1 27 545.68 Z" class="st32"/></g><g id="shape71-190" transform="translate(3.186,-0.972)"><title>a1bc77ea-5288-41a0-8f9a-2d282cf</title><path d="M0.41 549.89 L4.91 549.89 a0.378 0.378 0 0 1 0.378 0.378 L5.29 555.94 a0.378 0.378 0 0 1 -0.378 0.378 L0.41 556.31 a0.405 0.405 0 0 1 -0.405 -0.378 L0 550.27 a0.405 0.405 0 0 1 0.405 -0.378 ZM8.13 549.89 L12.5 549.89 a0.378 0.378 0 0 1 0.378 0.378 L12.88 555.94 a0.378 0.378 0 0 1 -0.378 0.378 L8.13 556.31 a0.378 0.378 0 0 1 -0.378 -0.378 L7.75 550.27 a0.378 0.378 0 0 1 0.378 -0.378 ZM15.85 549.89 L20.22 549.89 a0.405 0.405 0 0 1 0.405 0.378 L20.63 555.94 a0.405 0.405 0 0 1 -0.405 0.378 L15.85 556.31 a0.378 0.378 0 0 1 -0.378 -0.378 L15.47 550.27 a0.378 0.378 0 0 1 0.378 -0.378 ZM0.41 560.17 L4.91 560.17 a0.378 0.378 0 0 1 0.378 0.378 L5.29 566.22 a0.405 0.405 0 0 1 -0.378 0.405 L0.41 566.63 a0.405 0.405 0 0 1 -0.405 -0.405 L0 560.55 a0.405 0.405 0 0 1 0.405 -0.378 ZM8.13 560.17 L12.5 560.17 a0.378 0.378 0 0 1 0.378 0.378 L12.88 566.22 a0.405 0.405 0 0 1 -0.378 0.405 L8.13 566.63 a0.405 0.405 0 0 1 -0.378 -0.405 L7.75 560.55 a0.378 0.378 0 0 1 0.378 -0.378 ZM15.85 560.17 L20.22 560.17 a0.405 0.405 0 0 1 0.405 0.378 L20.63 566.22 a0.405 0.405 0 0 1 -0.405 0.405 L15.85 566.63 a0.405 0.405 0 0 1 -0.378 -0.405 L15.47 560.55 a0.378 0.378 0 0 1 0.378 -0.378 ZM0.41 570.49 L4.91 570.49 a0.378 0.378 0 0 1 0.378 0.378 L5.29 576.54 a0.378 0.378 0 0 1 -0.378 0.378 L0.41 576.91 a0.405 0.405 0 0 1 -0.405 -0.378 L0 570.76 a0.405 0.405 0 0 1 0.405 -0.27 ZM8.13 570.49 L12.5 570.49 a0.378 0.378 0 0 1 0.513 0.27 L13.01 576.43 a0.378 0.378 0 0 1 -0.378 0.378 L8.13 576.81 a0.378 0.378 0 0 1 -0.378 -0.378 L7.75 570.76 a0.378 0.378 0 0 1 0.378 -0.27 ZM8.13 580.78 L12.5 580.78 a0.378 0.378 0 0 1 0.378 0.378 L12.88 589.66 a0.378 0.378 0 0 1 -0.378 0.378 L8.13 590.04 a0.378 0.378 0 0 1 -0.378 -0.378 L7.75 581.15 a0.378 0.378 0 0 1 0.378 -0.378 ZM15.85 570.49 L20.22 570.49 a0.405 0.405 0 0 1 0.405 0.378 L20.63 576.54 a0.405 0.405 0 0 1 -0.405 0.378 L15.85 576.91 a0.378 0.378 0 0 1 -0.378 -0.378 L15.47 570.76 a0.378 0.378 0 0 1 0.378 -0.27 Z" class="st33"/></g></g><g id="shape78-192"><title>Sheet.78</title><desc>On-premises</desc><rect width="96.25" height="23.25" x="0" y="566.787" class="st17"/><text x="14.2" y="582.01" class="st18">On-premises</text></g></g><g id="group118-195" transform="translate(270.037,-20.8806)"><title>Sheet.118</title><g id="shape115-196" transform="translate(0,-2.625)"><title>Sheet.115</title><rect width="115.195" height="59.438" x="0" y="530.599" class="st34"/></g><g id="group80-198" transform="translate(15.6328,-30.5484)"><title>Sheet.80</title><g id="group81-199"><title>a4fd1868-54fe-4ca6-8ff6-3b01866</title><g id="shape82-200"><title>Sheet.82</title><path d="M26.26 575.42 A9.32894 9.32894 -180 0 0 16.75 566.38 A9.5555 9.5555 -180 0 0 7.64 572.71 A8.82506 8.82506 -180 0 0 0 581.31 A8.96463 8.96463 -180 0 0 9.19 590.04 L25.05 590.04 A7.77925 7.77925 -180 0 0 32.62 582.63 A7.44031 7.44031 -180 0 0 26.26 575.42 Z" class="st35"/></g><g id="shape83-204" transform="translate(7.59438,-3.68662)"><title>Sheet.83</title><path d="M15.79 586.81 L15.79 580.65 L14.16 580.65 L14.16 588.13 L18.61 588.13 L18.61 586.81 L15.79 586.81 ZM2.85 583.78 A3.30781 3.30781 0 0 1 1.92 583.22 a0.799313 0.799313 0 0 1 -0.2175 -0.58 a0.619875 0.619875 0 0 1 0.271875 -0.54375 A1.23794 1.23794 0 0 1 2.74 581.88 A2.93625 2.93625 0 0 1 4.55 582.41 L4.55 580.85 A4.67625 4.67625 -180 0 0 2.74 580.56 A2.97431 2.97431 -180 0 0 0.76 581.17 A1.9575 1.9575 -180 0 0 -0 582.79 C0 583.71 0.58 584.44 1.81 584.98 A5.26894 5.26894 0 0 1 2.94 585.63 a0.759437 0.759437 0 0 1 0.271875 0.58 a0.690562 0.690562 0 0 1 -0.29 0.561875 A1.46088 1.46088 0 0 1 2.1 586.97 A3.00875 3.00875 0 0 1 0.13 586.21 L0.13 587.9 A3.93856 3.93856 -180 0 0 2.07 588.33 A3.40206 3.40206 -180 0 0 4.21 587.73 A1.9575 1.9575 -180 0 0 4.8 586.09 A1.8995 1.8995 -180 0 0 4.35 584.82 A4.39531 4.39531 -180 0 0 2.85 583.78 ZM12.34 586.67 A3.97119 3.97119 -180 0 0 12.34 582.46 A3.277 3.277 -180 0 0 11.07 581.1 A3.625 3.625 -180 0 0 9.26 580.63 A3.828 3.828 -180 0 0 7.3 581.12 A3.364 3.364 -180 0 0 5.98 582.46 A4.46781 4.46781 -180 0 0 5.51 584.53 A4.089 4.089 -180 0 0 5.95 586.34 A3.20087 3.20087 -180 0 0 7.2 587.68 A3.7265 3.7265 -180 0 0 9.01 588.22 L10.57 590.04 L12.76 590.04 L10.53 588.04 A3.24438 3.24438 -180 0 0 12.34 586.67 ZM10.53 586.21 A1.70556 1.70556 0 0 1 9.15 586.85 A1.66025 1.66025 0 0 1 7.78 586.19 A2.76044 2.76044 0 0 1 7.25 584.38 A2.77131 2.77131 0 0 1 7.78 582.57 A1.8125 1.8125 0 0 1 9.19 581.9 A1.57506 1.57506 0 0 1 10.55 582.57 A2.93444 2.93444 0 0 1 11.04 584.38 A2.64444 2.64444 0 0 1 10.53 586.21 Z" class="st33"/></g></g></g><g id="group84-206" transform="translate(64.5703,-27.611)"><title>MsPortalFx.base.images-1</title><g id="group85-207"><title>Sheet.85</title><g id="shape86-208"><title>Sheet.86</title><path d="M1.02 570.44 L32.62 570.44 L32.62 588.98 A1.05598 1.05598 0 0 1 31.57 590.04 L2.07 590.04 A1.05598 1.05598 0 0 1 1.02 588.98 L1.02 570.44 Z" class="st36"/></g><g id="shape87-212" transform="translate(0,-19.5944)"><title>Sheet.87</title><path d="M2.08 584.21 L31.56 584.21 A1.05598 1.05598 0 0 1 32.62 585.27 L32.62 590.04 L1.02 590.04 L1.02 585.27 A1.05598 1.05598 0 0 1 2.08 584.21 Z" class="st37"/></g><g id="shape88-214" transform="translate(8.46276,-2.82404)"><title>Sheet.88</title><path d="M17.52 577.01 L9.69 577.01 a0.418653 0.418653 0 0 1 -0.233623 -0.0710214 L7.22 575.46 a0.409308 0.409308 -180 0 0 -0.231754 -0.0710214 L0.42 575.39 a0.418653 0.418653 -180 0 0 -0.418653 0.418653 L0 589.62 a0.416784 0.416784 -180 0 0 0.418653 0.416784 L17.52 590.04 a0.418653 0.418653 -180 0 0 0.418653 -0.416784 L17.93 577.43 a0.418653 0.418653 -180 0 0 -0.418653 -0.418653 Z" class="st38"/></g><g id="shape89-216" transform="translate(9.63275,-15.7555)"><title>Sheet.89</title><path d="M0 589.85 a0.183165 0.183165 -180 0 0 0.183161 0.183161 L4.15 590.04 a0.183165 0.183165 -180 0 0 0.183161 -0.183161 L4.33 589.35 a0.183165 0.183165 -180 0 0 -0.183161 -0.183161 L0.18 589.17 a0.183165 0.183165 -180 0 0 -0.183161 0.183161 L0 589.85 Z" class="st16"/></g><g id="shape90-218" transform="translate(9.63275,-15.7555)"><title>Sheet.90</title><path d="M0 589.91 a0.125225 0.125225 -180 0 0 0.125222 0.125222 L0.74 590.04 a0.125225 0.125225 -180 0 0 0.125222 -0.125222 L0.87 589.29 a0.125225 0.125225 -180 0 0 -0.125222 -0.125222 L0.13 589.17 a0.125225 0.125225 -180 0 0 -0.125222 0.125222 L0 589.91 Z" class="st37"/></g><g id="shape91-220" transform="translate(8.46276,-2.84459)"><title>Sheet.91</title><path d="M17.52 577.01 L8.92 577.01 a0.420522 0.420522 -180 0 0 -0.297169 0.123353 L7.24 578.52 a0.420522 0.420522 0 0 1 -0.297169 0.123353 L0.42 578.64 a0.418653 0.418653 -180 0 0 -0.418653 0.418653 L0 589.62 a0.416784 0.416784 -180 0 0 0.418653 0.416784 L17.52 590.04 a0.418653 0.418653 -180 0 0 0.418653 -0.416784 L17.93 577.43 a0.418653 0.418653 -180 0 0 -0.418653 -0.418653 Z" class="st39"/></g></g></g><g id="shape117-222" transform="translate(9.47266,1.13687E-13)"><title>Sheet.117</title><desc>Azure services</desc><rect width="96.25" height="23.25" x="0" y="566.787" class="st17"/><text x="10.73" y="582.01" class="st18">Azure services</text></g></g><g id="group166-225" transform="translate(147.635,-373.662)"><title>Sheet.166</title><g id="group159-226"><title>Sheet.159</title><g id="shape125-227" transform="translate(0,13.6619)"><title>Sheet.125</title><rect width="288" height="99.162" x="0" y="490.875" class="st40"/></g><g id="group136-229" transform="translate(8.81708,-15.75)"><title>Sheet.136</title><g id="shape127-230"><title>圆角矩形.60</title><path d="M1.06 590.04 L62.12 590.04 A1.06477 1.06477 -180 0 0 63.18 588.97 L63.18 537.1 A1.06477 1.06477 -180 0 0 62.12 536.04 L1.06 536.04 A1.06477 1.06477 -180 0 0 -0 537.1 L0 588.97 A1.06477 1.06477 -180 0 0 1.06 590.04 Z" class="st41"/></g><g id="shape128-232" transform="translate(3.7263,1.13687E-13)"><title>Sheet.128</title><desc>Pod 10.10.1.2</desc><rect width="55.73" height="30" x="0" y="560.037" class="st17"/><text x="17.46" y="571.44" class="st18">Pod<tspan x="4.56" class="st42" dy="1.2em">10.10.1.2</tspan></text></g><g id="group129-236" transform="translate(22.3354,-31.5)"><title>Icon-web-50.129</title><g id="shape130-237"><title>Sheet.130</title><path d="M0.53 576.91 L18.51 576.91 L18.51 589.29 a0.602969 0.744527 0 0 1 -0.602969 0.744527 L1.13 590.04 a0.602969 0.744527 0 0 1 -0.602969 -0.744527 L0.53 576.91 Z" class="st43"/></g><g id="shape131-241" transform="translate(0,-13.1272)"><title>Sheet.131</title><path d="M1.13 585.31 L17.91 585.31 a0.602969 0.744527 0 0 1 0.602969 0.744527 L18.51 590.04 L0.53 590.04 L0.53 586.04 a0.602969 0.744527 0 0 1 0.602969 -0.731465 Z" class="st44"/></g><g id="shape132-243" transform="translate(2.95137,-14.5379)"><title>Sheet.132</title><path d="M0 589.67 a0.296202 0.365741 -180 0 0 0.296195 0.365733 L12.85 590.04 a0.296202 0.365741 -180 0 0 0.296195 -0.365733 L13.15 588.5 a0.296202 0.365741 -180 0 0 -0.296195 -0.365733 L0.3 588.13 a0.296202 0.365741 -180 0 0 -0.296195 0.365733 L0 589.67 Z" class="st33"/></g><g id="shape133-245" transform="translate(2.32725,-5.01576)"><title>Sheet.133</title><path d="M4.74 586.12 L3.79 590.04 L3.03 590.04 L2.44 587.42 A1.16362 1.43681 0 0 1 2.44 587.07 A1.05784 1.30619 0 0 1 2.44 587.41 L1.69 590.04 L0.94 590.04 L0 586.12 L0.75 586.12 L1.33 588.98 A1.51271 1.86785 0 0 1 1.33 589.32 A1.39635 1.72417 0 0 1 1.33 588.98 L2.09 586.12 L2.78 586.12 L3.36 588.99 A1.68197 2.07684 0 0 1 3.36 589.33 A1.59734 1.97234 0 0 1 3.36 588.99 L4.02 586.12 L4.74 586.12 Z" class="st16"/></g><g id="shape134-247" transform="translate(7.19331,-5.01576)"><title>Sheet.134</title><path d="M4.74 586.12 L3.79 590.04 L3.03 590.04 L2.44 587.42 A1.16362 1.43681 0 0 1 2.44 587.07 A1.957 2.41645 0 0 1 2.33 587.42 L1.69 590.04 L0.95 590.04 L0 586.12 L0.75 586.12 L1.34 588.98 A1.65023 2.03765 0 0 1 1.34 589.32 C1.34 589.21 1.34 589.1 1.4 588.98 L2.11 586.12 L2.78 586.12 L3.36 588.99 A1.68197 2.07684 0 0 1 3.36 589.33 A1.59734 1.97234 0 0 1 3.36 588.99 L4.05 586.12 L4.74 586.12 Z" class="st16"/></g><g id="shape135-249" transform="translate(12.0594,-5.01576)"><title>Sheet.135</title><path d="M4.75 586.12 L3.81 590.04 L3.05 590.04 L2.44 587.42 A2.04163 2.52094 0 0 1 2.44 587.07 A1.05784 1.30619 0 0 1 2.39 587.41 L1.69 590.04 L0.95 590.04 L0 586.12 L0.76 586.12 L1.34 588.98 A1.51271 1.86785 0 0 1 1.34 589.32 A1.34346 1.65886 0 0 1 1.34 588.98 L2.11 586.12 L2.75 586.12 L3.32 588.99 A1.68197 2.07684 0 0 1 3.32 589.33 A1.75601 2.16827 0 0 1 3.32 588.99 L4.05 586.12 L4.75 586.12 Z" class="st16"/></g></g></g><g id="group137-251" transform="translate(112.559,-15.75)"><title>Sheet.137</title><g id="shape138-252"><title>圆角矩形.60</title><path d="M1.06 590.04 L62.12 590.04 A1.06477 1.06477 -180 0 0 63.18 588.97 L63.18 537.1 A1.06477 1.06477 -180 0 0 62.12 536.04 L1.06 536.04 A1.06477 1.06477 -180 0 0 -0 537.1 L0 588.97 A1.06477 1.06477 -180 0 0 1.06 590.04 Z" class="st41"/></g><g id="shape139-254" transform="translate(3.7263,1.13687E-13)"><title>Sheet.139</title><desc>Pod 10.10.1.3</desc><rect width="55.73" height="30" x="0" y="560.037" class="st17"/><text x="17.46" y="571.44" class="st18">Pod<tspan x="4.56" class="st42" dy="1.2em">10.10.1.3</tspan></text></g><g id="group140-258" transform="translate(22.3354,-31.5)"><title>Icon-web-50.129</title><g id="shape141-259"><title>Sheet.141</title><path d="M0.53 576.91 L18.51 576.91 L18.51 589.29 a0.602969 0.744527 0 0 1 -0.602969 0.744527 L1.13 590.04 a0.602969 0.744527 0 0 1 -0.602969 -0.744527 L0.53 576.91 Z" class="st43"/></g><g id="shape142-262" transform="translate(0,-13.1272)"><title>Sheet.142</title><path d="M1.13 585.31 L17.91 585.31 a0.602969 0.744527 0 0 1 0.602969 0.744527 L18.51 590.04 L0.53 590.04 L0.53 586.04 a0.602969 0.744527 0 0 1 0.602969 -0.731465 Z" class="st44"/></g><g id="shape143-264" transform="translate(2.95137,-14.5379)"><title>Sheet.143</title><path d="M0 589.67 a0.296202 0.365741 -180 0 0 0.296195 0.365733 L12.85 590.04 a0.296202 0.365741 -180 0 0 0.296195 -0.365733 L13.15 588.5 a0.296202 0.365741 -180 0 0 -0.296195 -0.365733 L0.3 588.13 a0.296202 0.365741 -180 0 0 -0.296195 0.365733 L0 589.67 Z" class="st33"/></g><g id="shape144-266" transform="translate(2.32725,-5.01576)"><title>Sheet.144</title><path d="M4.74 586.12 L3.79 590.04 L3.03 590.04 L2.44 587.42 A1.16362 1.43681 0 0 1 2.44 587.07 A1.05784 1.30619 0 0 1 2.44 587.41 L1.69 590.04 L0.94 590.04 L0 586.12 L0.75 586.12 L1.33 588.98 A1.51271 1.86785 0 0 1 1.33 589.32 A1.39635 1.72417 0 0 1 1.33 588.98 L2.09 586.12 L2.78 586.12 L3.36 588.99 A1.68197 2.07684 0 0 1 3.36 589.33 A1.59734 1.97234 0 0 1 3.36 588.99 L4.02 586.12 L4.74 586.12 Z" class="st16"/></g><g id="shape145-268" transform="translate(7.19331,-5.01576)"><title>Sheet.145</title><path d="M4.74 586.12 L3.79 590.04 L3.03 590.04 L2.44 587.42 A1.16362 1.43681 0 0 1 2.44 587.07 A1.957 2.41645 0 0 1 2.33 587.42 L1.69 590.04 L0.95 590.04 L0 586.12 L0.75 586.12 L1.34 588.98 A1.65023 2.03765 0 0 1 1.34 589.32 C1.34 589.21 1.34 589.1 1.4 588.98 L2.11 586.12 L2.78 586.12 L3.36 588.99 A1.68197 2.07684 0 0 1 3.36 589.33 A1.59734 1.97234 0 0 1 3.36 588.99 L4.05 586.12 L4.74 586.12 Z" class="st16"/></g><g id="shape146-270" transform="translate(12.0594,-5.01576)"><title>Sheet.146</title><path d="M4.75 586.12 L3.81 590.04 L3.05 590.04 L2.44 587.42 A2.04163 2.52094 0 0 1 2.44 587.07 A1.05784 1.30619 0 0 1 2.39 587.41 L1.69 590.04 L0.95 590.04 L0 586.12 L0.76 586.12 L1.34 588.98 A1.51271 1.86785 0 0 1 1.34 589.32 A1.34346 1.65886 0 0 1 1.34 588.98 L2.11 586.12 L2.75 586.12 L3.32 588.99 A1.68197 2.07684 0 0 1 3.32 589.33 A1.75601 2.16827 0 0 1 3.32 588.99 L4.05 586.12 L4.75 586.12 Z" class="st16"/></g></g></g><g id="group147-272" transform="translate(215.817,-15.75)"><title>Sheet.147</title><g id="shape148-273"><title>圆角矩形.60</title><path d="M1.06 590.04 L62.12 590.04 A1.06477 1.06477 -180 0 0 63.18 588.97 L63.18 537.1 A1.06477 1.06477 -180 0 0 62.12 536.04 L1.06 536.04 A1.06477 1.06477 -180 0 0 -0 537.1 L0 588.97 A1.06477 1.06477 -180 0 0 1.06 590.04 Z" class="st41"/></g><g id="shape149-275" transform="translate(3.7263,1.13687E-13)"><title>Sheet.149</title><desc>Pod 10.10.1.4</desc><rect width="55.73" height="30" x="0" y="560.037" class="st17"/><text x="17.46" y="571.44" class="st18">Pod<tspan x="4.56" class="st42" dy="1.2em">10.10.1.4</tspan></text></g><g id="group150-279" transform="translate(22.3354,-31.5)"><title>Icon-web-50.129</title><g id="shape151-280"><title>Sheet.151</title><path d="M0.53 576.91 L18.51 576.91 L18.51 589.29 a0.602969 0.744527 0 0 1 -0.602969 0.744527 L1.13 590.04 a0.602969 0.744527 0 0 1 -0.602969 -0.744527 L0.53 576.91 Z" class="st43"/></g><g id="shape152-283" transform="translate(0,-13.1272)"><title>Sheet.152</title><path d="M1.13 585.31 L17.91 585.31 a0.602969 0.744527 0 0 1 0.602969 0.744527 L18.51 590.04 L0.53 590.04 L0.53 586.04 a0.602969 0.744527 0 0 1 0.602969 -0.731465 Z" class="st44"/></g><g id="shape153-285" transform="translate(2.95137,-14.5379)"><title>Sheet.153</title><path d="M0 589.67 a0.296202 0.365741 -180 0 0 0.296195 0.365733 L12.85 590.04 a0.296202 0.365741 -180 0 0 0.296195 -0.365733 L13.15 588.5 a0.296202 0.365741 -180 0 0 -0.296195 -0.365733 L0.3 588.13 a0.296202 0.365741 -180 0 0 -0.296195 0.365733 L0 589.67 Z" class="st33"/></g><g id="shape154-287" transform="translate(2.32725,-5.01576)"><title>Sheet.154</title><path d="M4.74 586.12 L3.79 590.04 L3.03 590.04 L2.44 587.42 A1.16362 1.43681 0 0 1 2.44 587.07 A1.05784 1.30619 0 0 1 2.44 587.41 L1.69 590.04 L0.94 590.04 L0 586.12 L0.75 586.12 L1.33 588.98 A1.51271 1.86785 0 0 1 1.33 589.32 A1.39635 1.72417 0 0 1 1.33 588.98 L2.09 586.12 L2.78 586.12 L3.36 588.99 A1.68197 2.07684 0 0 1 3.36 589.33 A1.59734 1.97234 0 0 1 3.36 588.99 L4.02 586.12 L4.74 586.12 Z" class="st16"/></g><g id="shape155-289" transform="translate(7.19331,-5.01576)"><title>Sheet.155</title><path d="M4.74 586.12 L3.79 590.04 L3.03 590.04 L2.44 587.42 A1.16362 1.43681 0 0 1 2.44 587.07 A1.957 2.41645 0 0 1 2.33 587.42 L1.69 590.04 L0.95 590.04 L0 586.12 L0.75 586.12 L1.34 588.98 A1.65023 2.03765 0 0 1 1.34 589.32 C1.34 589.21 1.34 589.1 1.4 588.98 L2.11 586.12 L2.78 586.12 L3.36 588.99 A1.68197 2.07684 0 0 1 3.36 589.33 A1.59734 1.97234 0 0 1 3.36 588.99 L4.05 586.12 L4.74 586.12 Z" class="st16"/></g><g id="shape156-291" transform="translate(12.0594,-5.01576)"><title>Sheet.156</title><path d="M4.75 586.12 L3.81 590.04 L3.05 590.04 L2.44 587.42 A2.04163 2.52094 0 0 1 2.44 587.07 A1.05784 1.30619 0 0 1 2.39 587.41 L1.69 590.04 L0.95 590.04 L0 586.12 L0.76 586.12 L1.34 588.98 A1.51271 1.86785 0 0 1 1.34 589.32 A1.34346 1.65886 0 0 1 1.34 588.98 L2.11 586.12 L2.75 586.12 L3.32 588.99 A1.68197 2.07684 0 0 1 3.32 589.33 A1.75601 2.16827 0 0 1 3.32 588.99 L4.05 586.12 L4.75 586.12 Z" class="st16"/></g></g></g></g><g id="group165-293" transform="translate(0,-84.75)"><title>Sheet.165</title><g id="shape160-294" transform="translate(0,-0.749985)"><title>Sheet.160</title><rect width="288" height="85.5" x="0" y="504.537" class="st45"/></g><g id="shape161-296" transform="translate(3.24999,-60.75)"><title>Sheet.161</title><desc>Node 1 (192.168.1.4)</desc><rect width="143" height="23.25" x="0" y="566.787" class="st17"/><text x="4" y="582.01" class="st18">Node 1 (192.168.1.4)</text></g><g id="shape163-299" transform="translate(199.25,-45.375)"><title>Sheet.163</title><desc>CNI Overlay Plugin</desc><rect width="79.75" height="31.875" x="0" y="558.162" class="st46"/><text x="8.4" y="570.5" class="st47">CNI Overlay <tspan x="23.28" class="st42" dy="1.2em">Plugin</tspan></text></g><g id="shape162-303" transform="translate(72.5,1.13687E-13)"><title>Sheet.162</title><desc>Pod CIDR - 10.10.1.0/24</desc><rect width="143" height="23.25" x="0" y="566.787" class="st17"/><text x="8.54" y="582.01" class="st18">Pod CIDR - 10.10.1.0/24</text></g></g></g><g id="group167-306" transform="translate(494.135,-373.662)"><title>Sheet.167</title><g id="group168-307"><title>Sheet.168</title><g id="shape169-308" transform="translate(0,13.6619)"><title>Sheet.169</title><rect width="288" height="99.162" x="0" y="490.875" class="st40"/></g><g id="group170-310" transform="translate(8.81708,-15.75)"><title>Sheet.170</title><g id="shape171-311"><title>圆角矩形.60</title><path d="M1.06 590.04 L62.12 590.04 A1.06477 1.06477 -180 0 0 63.18 588.97 L63.18 537.1 A1.06477 1.06477 -180 0 0 62.12 536.04 L1.06 536.04 A1.06477 1.06477 -180 0 0 -0 537.1 L0 588.97 A1.06477 1.06477 -180 0 0 1.06 590.04 Z" class="st41"/></g><g id="shape172-313" transform="translate(3.7263,3.41061E-13)"><title>Sheet.172</title><desc>Pod 10.10.2.2</desc><rect width="55.73" height="30" x="0" y="560.037" class="st17"/><text x="17.46" y="571.44" class="st18">Pod<tspan x="4.56" class="st42" dy="1.2em">10.10.2.2</tspan></text></g><g id="group173-317" transform="translate(22.3354,-31.5)"><title>Icon-web-50.129</title><g id="shape174-318"><title>Sheet.174</title><path d="M0.53 576.91 L18.51 576.91 L18.51 589.29 a0.602969 0.744527 0 0 1 -0.602969 0.744527 L1.13 590.04 a0.602969 0.744527 0 0 1 -0.602969 -0.744527 L0.53 576.91 Z" class="st43"/></g><g id="shape175-321" transform="translate(0,-13.1272)"><title>Sheet.175</title><path d="M1.13 585.31 L17.91 585.31 a0.602969 0.744527 0 0 1 0.602969 0.744527 L18.51 590.04 L0.53 590.04 L0.53 586.04 a0.602969 0.744527 0 0 1 0.602969 -0.731465 Z" class="st44"/></g><g id="shape176-323" transform="translate(2.95137,-14.5379)"><title>Sheet.176</title><path d="M0 589.67 a0.296202 0.365741 -180 0 0 0.296195 0.365733 L12.85 590.04 a0.296202 0.365741 -180 0 0 0.296195 -0.365733 L13.15 588.5 a0.296202 0.365741 -180 0 0 -0.296195 -0.365733 L0.3 588.13 a0.296202 0.365741 -180 0 0 -0.296195 0.365733 L0 589.67 Z" class="st33"/></g><g id="shape177-325" transform="translate(2.32725,-5.01576)"><title>Sheet.177</title><path d="M4.74 586.12 L3.79 590.04 L3.03 590.04 L2.44 587.42 A1.16362 1.43681 0 0 1 2.44 587.07 A1.05784 1.30619 0 0 1 2.44 587.41 L1.69 590.04 L0.94 590.04 L0 586.12 L0.75 586.12 L1.33 588.98 A1.51271 1.86785 0 0 1 1.33 589.32 A1.39635 1.72417 0 0 1 1.33 588.98 L2.09 586.12 L2.78 586.12 L3.36 588.99 A1.68197 2.07684 0 0 1 3.36 589.33 A1.59734 1.97234 0 0 1 3.36 588.99 L4.02 586.12 L4.74 586.12 Z" class="st16"/></g><g id="shape178-327" transform="translate(7.19331,-5.01576)"><title>Sheet.178</title><path d="M4.74 586.12 L3.79 590.04 L3.03 590.04 L2.44 587.42 A1.16362 1.43681 0 0 1 2.44 587.07 A1.957 2.41645 0 0 1 2.33 587.42 L1.69 590.04 L0.95 590.04 L0 586.12 L0.75 586.12 L1.34 588.98 A1.65023 2.03765 0 0 1 1.34 589.32 C1.34 589.21 1.34 589.1 1.4 588.98 L2.11 586.12 L2.78 586.12 L3.36 588.99 A1.68197 2.07684 0 0 1 3.36 589.33 A1.59734 1.97234 0 0 1 3.36 588.99 L4.05 586.12 L4.74 586.12 Z" class="st16"/></g><g id="shape179-329" transform="translate(12.0594,-5.01576)"><title>Sheet.179</title><path d="M4.75 586.12 L3.81 590.04 L3.05 590.04 L2.44 587.42 A2.04163 2.52094 0 0 1 2.44 587.07 A1.05784 1.30619 0 0 1 2.39 587.41 L1.69 590.04 L0.95 590.04 L0 586.12 L0.76 586.12 L1.34 588.98 A1.51271 1.86785 0 0 1 1.34 589.32 A1.34346 1.65886 0 0 1 1.34 588.98 L2.11 586.12 L2.75 586.12 L3.32 588.99 A1.68197 2.07684 0 0 1 3.32 589.33 A1.75601 2.16827 0 0 1 3.32 588.99 L4.05 586.12 L4.75 586.12 Z" class="st16"/></g></g></g><g id="group180-331" transform="translate(112.559,-15.75)"><title>Sheet.180</title><g id="shape181-332"><title>圆角矩形.60</title><path d="M1.06 590.04 L62.12 590.04 A1.06477 1.06477 -180 0 0 63.18 588.97 L63.18 537.1 A1.06477 1.06477 -180 0 0 62.12 536.04 L1.06 536.04 A1.06477 1.06477 -180 0 0 -0 537.1 L0 588.97 A1.06477 1.06477 -180 0 0 1.06 590.04 Z" class="st41"/></g><g id="shape182-334" transform="translate(3.7263,3.41061E-13)"><title>Sheet.182</title><desc>Pod 10.10.2.3</desc><rect width="55.73" height="30" x="0" y="560.037" class="st17"/><text x="17.46" y="571.44" class="st18">Pod<tspan x="4.56" class="st42" dy="1.2em">10.10.2.3</tspan></text></g><g id="group183-338" transform="translate(22.3354,-31.5)"><title>Icon-web-50.129</title><g id="shape184-339"><title>Sheet.184</title><path d="M0.53 576.91 L18.51 576.91 L18.51 589.29 a0.602969 0.744527 0 0 1 -0.602969 0.744527 L1.13 590.04 a0.602969 0.744527 0 0 1 -0.602969 -0.744527 L0.53 576.91 Z" class="st43"/></g><g id="shape185-342" transform="translate(0,-13.1272)"><title>Sheet.185</title><path d="M1.13 585.31 L17.91 585.31 a0.602969 0.744527 0 0 1 0.602969 0.744527 L18.51 590.04 L0.53 590.04 L0.53 586.04 a0.602969 0.744527 0 0 1 0.602969 -0.731465 Z" class="st44"/></g><g id="shape186-344" transform="translate(2.95137,-14.5379)"><title>Sheet.186</title><path d="M0 589.67 a0.296202 0.365741 -180 0 0 0.296195 0.365733 L12.85 590.04 a0.296202 0.365741 -180 0 0 0.296195 -0.365733 L13.15 588.5 a0.296202 0.365741 -180 0 0 -0.296195 -0.365733 L0.3 588.13 a0.296202 0.365741 -180 0 0 -0.296195 0.365733 L0 589.67 Z" class="st33"/></g><g id="shape187-346" transform="translate(2.32725,-5.01576)"><title>Sheet.187</title><path d="M4.74 586.12 L3.79 590.04 L3.03 590.04 L2.44 587.42 A1.16362 1.43681 0 0 1 2.44 587.07 A1.05784 1.30619 0 0 1 2.44 587.41 L1.69 590.04 L0.94 590.04 L0 586.12 L0.75 586.12 L1.33 588.98 A1.51271 1.86785 0 0 1 1.33 589.32 A1.39635 1.72417 0 0 1 1.33 588.98 L2.09 586.12 L2.78 586.12 L3.36 588.99 A1.68197 2.07684 0 0 1 3.36 589.33 A1.59734 1.97234 0 0 1 3.36 588.99 L4.02 586.12 L4.74 586.12 Z" class="st16"/></g><g id="shape188-348" transform="translate(7.19331,-5.01576)"><title>Sheet.188</title><path d="M4.74 586.12 L3.79 590.04 L3.03 590.04 L2.44 587.42 A1.16362 1.43681 0 0 1 2.44 587.07 A1.957 2.41645 0 0 1 2.33 587.42 L1.69 590.04 L0.95 590.04 L0 586.12 L0.75 586.12 L1.34 588.98 A1.65023 2.03765 0 0 1 1.34 589.32 C1.34 589.21 1.34 589.1 1.4 588.98 L2.11 586.12 L2.78 586.12 L3.36 588.99 A1.68197 2.07684 0 0 1 3.36 589.33 A1.59734 1.97234 0 0 1 3.36 588.99 L4.05 586.12 L4.74 586.12 Z" class="st16"/></g><g id="shape189-350" transform="translate(12.0594,-5.01576)"><title>Sheet.189</title><path d="M4.75 586.12 L3.81 590.04 L3.05 590.04 L2.44 587.42 A2.04163 2.52094 0 0 1 2.44 587.07 A1.05784 1.30619 0 0 1 2.39 587.41 L1.69 590.04 L0.95 590.04 L0 586.12 L0.76 586.12 L1.34 588.98 A1.51271 1.86785 0 0 1 1.34 589.32 A1.34346 1.65886 0 0 1 1.34 588.98 L2.11 586.12 L2.75 586.12 L3.32 588.99 A1.68197 2.07684 0 0 1 3.32 589.33 A1.75601 2.16827 0 0 1 3.32 588.99 L4.05 586.12 L4.75 586.12 Z" class="st16"/></g></g></g><g id="group190-352" transform="translate(215.817,-15.75)"><title>Sheet.190</title><g id="shape191-353"><title>圆角矩形.60</title><path d="M1.06 590.04 L62.12 590.04 A1.06477 1.06477 -180 0 0 63.18 588.97 L63.18 537.1 A1.06477 1.06477 -180 0 0 62.12 536.04 L1.06 536.04 A1.06477 1.06477 -180 0 0 -0 537.1 L0 588.97 A1.06477 1.06477 -180 0 0 1.06 590.04 Z" class="st41"/></g><g id="shape192-355" transform="translate(3.7263,3.41061E-13)"><title>Sheet.192</title><desc>Pod 10.10.2.4</desc><rect width="55.73" height="30" x="0" y="560.037" class="st17"/><text x="17.46" y="571.44" class="st18">Pod<tspan x="4.56" class="st42" dy="1.2em">10.10.2.4</tspan></text></g><g id="group193-359" transform="translate(22.3354,-31.5)"><title>Icon-web-50.129</title><g id="shape194-360"><title>Sheet.194</title><path d="M0.53 576.91 L18.51 576.91 L18.51 589.29 a0.602969 0.744527 0 0 1 -0.602969 0.744527 L1.13 590.04 a0.602969 0.744527 0 0 1 -0.602969 -0.744527 L0.53 576.91 Z" class="st43"/></g><g id="shape195-363" transform="translate(0,-13.1272)"><title>Sheet.195</title><path d="M1.13 585.31 L17.91 585.31 a0.602969 0.744527 0 0 1 0.602969 0.744527 L18.51 590.04 L0.53 590.04 L0.53 586.04 a0.602969 0.744527 0 0 1 0.602969 -0.731465 Z" class="st44"/></g><g id="shape196-365" transform="translate(2.95137,-14.5379)"><title>Sheet.196</title><path d="M0 589.67 a0.296202 0.365741 -180 0 0 0.296195 0.365733 L12.85 590.04 a0.296202 0.365741 -180 0 0 0.296195 -0.365733 L13.15 588.5 a0.296202 0.365741 -180 0 0 -0.296195 -0.365733 L0.3 588.13 a0.296202 0.365741 -180 0 0 -0.296195 0.365733 L0 589.67 Z" class="st33"/></g><g id="shape197-367" transform="translate(2.32725,-5.01576)"><title>Sheet.197</title><path d="M4.74 586.12 L3.79 590.04 L3.03 590.04 L2.44 587.42 A1.16362 1.43681 0 0 1 2.44 587.07 A1.05784 1.30619 0 0 1 2.44 587.41 L1.69 590.04 L0.94 590.04 L0 586.12 L0.75 586.12 L1.33 588.98 A1.51271 1.86785 0 0 1 1.33 589.32 A1.39635 1.72417 0 0 1 1.33 588.98 L2.09 586.12 L2.78 586.12 L3.36 588.99 A1.68197 2.07684 0 0 1 3.36 589.33 A1.59734 1.97234 0 0 1 3.36 588.99 L4.02 586.12 L4.74 586.12 Z" class="st16"/></g><g id="shape198-369" transform="translate(7.19331,-5.01576)"><title>Sheet.198</title><path d="M4.74 586.12 L3.79 590.04 L3.03 590.04 L2.44 587.42 A1.16362 1.43681 0 0 1 2.44 587.07 A1.957 2.41645 0 0 1 2.33 587.42 L1.69 590.04 L0.95 590.04 L0 586.12 L0.75 586.12 L1.34 588.98 A1.65023 2.03765 0 0 1 1.34 589.32 C1.34 589.21 1.34 589.1 1.4 588.98 L2.11 586.12 L2.78 586.12 L3.36 588.99 A1.68197 2.07684 0 0 1 3.36 589.33 A1.59734 1.97234 0 0 1 3.36 588.99 L4.05 586.12 L4.74 586.12 Z" class="st16"/></g><g id="shape199-371" transform="translate(12.0594,-5.01576)"><title>Sheet.199</title><path d="M4.75 586.12 L3.81 590.04 L3.05 590.04 L2.44 587.42 A2.04163 2.52094 0 0 1 2.44 587.07 A1.05784 1.30619 0 0 1 2.39 587.41 L1.69 590.04 L0.95 590.04 L0 586.12 L0.76 586.12 L1.34 588.98 A1.51271 1.86785 0 0 1 1.34 589.32 A1.34346 1.65886 0 0 1 1.34 588.98 L2.11 586.12 L2.75 586.12 L3.32 588.99 A1.68197 2.07684 0 0 1 3.32 589.33 A1.75601 2.16827 0 0 1 3.32 588.99 L4.05 586.12 L4.75 586.12 Z" class="st16"/></g></g></g></g><g id="group200-373" transform="translate(0,-84.75)"><title>Sheet.200</title><g id="shape201-374" transform="translate(0,-0.749985)"><title>Sheet.201</title><rect width="288" height="85.5" x="0" y="504.537" class="st45"/></g><g id="shape202-376" transform="translate(3.24999,-60.75)"><title>Sheet.202</title><desc>Node 2 (192.168.1.5)</desc><rect width="143" height="23.25" x="0" y="566.787" class="st17"/><text x="4" y="582.01" class="st18">Node 2 (192.168.1.5)</text></g><g id="shape204-379" transform="translate(199.25,-45.375)"><title>Sheet.204</title><desc>CNI Overlay Plugin</desc><rect width="79.75" height="31.875" x="0" y="558.162" class="st46"/><text x="8.4" y="570.5" class="st47">CNI Overlay <tspan x="23.28" class="st42" dy="1.2em">Plugin</tspan></text></g><g id="shape203-383" transform="translate(72.5,1.13687E-13)"><title>Sheet.203</title><desc>Pod CIDR - 10.10.2.0/24</desc><rect width="143" height="23.25" x="0" y="566.787" class="st17"/><text x="8.54" y="582.01" class="st18">Pod CIDR - 10.10.2.0/24</text></g></g></g><g id="shape206-386" transform="translate(814.25,-361.956)"><title>Sheet.206</title><desc>Overlay Network</desc><rect width="70" height="23.25" x="0" y="566.787" class="st17"/><text x="14.97" y="574.81" class="st18">Overlay <tspan x="12.42" class="st42" dy="1.2em">Network</tspan></text></g><g id="shape207-390" transform="translate(279.385,-152.037)"><title>圆角矩形.257</title><path d="M1.63 590.04 L94.87 590.04 A1.62623 1.62623 -180 0 0 96.5 588.41 L96.5 514.41 A1.62623 1.62623 -180 0 0 94.87 512.79 L1.63 512.79 A1.62623 1.62623 -180 0 0 -0 514.41 L0 588.41 A1.62623 1.62623 -180 0 0 1.63 590.04 Z" class="st23"/></g><g id="shape208-392" transform="translate(438.75,-152.037)"><title>圆角矩形.208</title><path d="M1.63 590.04 L94.87 590.04 A1.62623 1.62623 -180 0 0 96.5 588.41 L96.5 514.41 A1.62623 1.62623 -180 0 0 94.87 512.79 L1.63 512.79 A1.62623 1.62623 -180 0 0 -0 514.41 L0 588.41 A1.62623 1.62623 -180 0 0 1.63 590.04 Z" class="st23"/></g><g id="shape209-394" transform="translate(917.672,439.125) rotate(90)"><title>Sheet.209</title><path d="M0 590.04 L60.93 590.04" class="st48"/></g><g id="shape210-400" transform="translate(1077.04,439.125) rotate(90)"><title>Sheet.210</title><path d="M6.67 590.04 L7.03 590.04 L58.21 590.04" class="st50"/></g><g id="shape211-408" transform="translate(1191.04,439.125) rotate(90)"><title>Sheet.211</title><path d="M6.67 590.04 L7.03 590.04 L58.21 590.04" class="st50"/></g><g id="shape212-415" transform="translate(778.08,271.099) rotate(90)"><title>Sheet.212</title><path d="M0 590.04 L55.24 590.04" class="st48"/></g><g id="shape213-420" transform="translate(1228.32,271.099) rotate(90)"><title>Sheet.213</title><path d="M0 590.04 L55.24 590.04" class="st48"/></g><g id="shape214-425" transform="translate(1331.58,271.099) rotate(90)"><title>Sheet.214</title><path d="M0 590.04 L55.24 590.04" class="st48"/></g><g id="shape215-430" transform="translate(771.421,201.606) rotate(90.0952)"><title>Sheet.215</title><path d="M6.67 590.04 L7.03 590.04 L22.38 590.04" class="st50"/></g><g id="shape218-437" transform="translate(877.171,199.737) rotate(89.9137)"><title>Sheet.218</title><path d="M6.68 590.04 L7.03 590.04 L22.38 590.04" class="st50"/></g><g id="shape219-444" transform="translate(978.421,199.737) rotate(89.9137)"><title>Sheet.219</title><path d="M6.68 590.04 L7.03 590.04 L22.38 590.04" class="st50"/></g><g id="shape220-451" transform="translate(1117.92,199.737) rotate(89.9137)"><title>Sheet.220</title><path d="M6.68 590.04 L7.03 590.04 L22.38 590.04" class="st50"/></g><g id="shape221-458" transform="translate(1221.42,199.737) rotate(89.9137)"><title>Sheet.221</title><path d="M6.68 590.04 L7.03 590.04 L22.38 590.04" class="st50"/></g><g id="shape222-465" transform="translate(1324.92,199.737) rotate(89.9137)"><title>Sheet.222</title><path d="M6.68 590.04 L7.03 590.04 L22.38 590.04" class="st50"/></g><g id="shape242-472" transform="translate(1124.58,271.099) rotate(90)"><title>Sheet.242</title><path d="M0 590.04 L55.24 590.04" class="st48"/></g><g id="shape238-477" transform="translate(494.135,-306)"><title>Sheet.238</title><desc>SNAT</desc><rect width="288" height="54" x="0" y="536.037" class="st51"/><text x="124.41" y="567.84" class="st52">SNAT</text></g><g id="shape241-480" transform="translate(881.822,271.099) rotate(90)"><title>Sheet.241</title><path d="M0 590.04 L55.24 590.04" class="st48"/></g><g id="shape243-485" transform="translate(985.08,271.099) rotate(90)"><title>Sheet.243</title><path d="M0 590.04 L55.24 590.04" class="st48"/></g><g id="shape123-490" transform="translate(147.635,-306)"><title>Sheet.123</title><desc>SNAT</desc><rect width="288" height="54" x="0" y="536.037" class="st51"/><text x="124.41" y="567.84" class="st52">SNAT</text></g><g id="shape234-493" transform="translate(32.7279,201.597) rotate(-74.3894)"><title>Sheet.234</title><path d="M0 590.04 L158.83 590.04" class="st53"/></g><g id="shape235-499" transform="translate(167.335,-39.7228) rotate(-47.3055)"><title>Sheet.235</title><path d="M0 590.04 L210.32 590.04" class="st53"/></g><g id="shape232-504" transform="translate(229.212,818.542) rotate(-140.942)"><title>Sheet.232</title><path d="M0 590.04 L246.49 590.04" class="st53"/></g><g id="shape231-509" transform="translate(323.936,881.316) rotate(-151.994)"><title>Sheet.231</title><path d="M0 590.04 L333.17 590.04" class="st53"/></g><g id="shape230-514" transform="translate(383.971,909.048) rotate(-158.419)"><title>Sheet.230</title><path d="M0 590.04 L427.28 590.04" class="st53"/></g><g id="shape233-519" transform="translate(49.4835,570.073) rotate(-110.818)"><title>Sheet.233</title><path d="M0 590.04 L163.87 590.04" class="st53"/></g></g></svg>