<svg xmlns="http://www.w3.org/2000/svg" xmlns:ev="http://www.w3.org/2001/xml-events" xmlns:xlink="http://www.w3.org/1999/xlink" width="1600.003" height="1066.666" class="st85" color-interpolation-filters="sRGB" viewBox="0 0 1200 800" xml:space="preserve"><style type="text/css">.st1,.st2{fill:#fff;stroke:none;stroke-width:.25}.st2{stroke:#c7c8c8;stroke-width:.5}.st3,.st4,.st5{stroke-width:.25}.st3{fill:#ecf3fb;stroke:#4472c4;stroke-dasharray:.01,1.25}.st4,.st5{fill:#c5dff5;stroke:none}.st5{fill:none}.st6{fill:#000;font-family:Segoe UI;font-size:1.00001em}.st7{fill:url(#grad0-16);stroke:none;stroke-linecap:butt;stroke-width:.75}.st8{font-size:1em}.st9{fill:url(#grad0-25)}.st10{stroke:none;stroke-linecap:butt;stroke-width:.75}.st11{fill:url(#grad4-30)}.st11,.st12,.st13,.st14,.st15,.st16,.st17,.st18,.st19{stroke:none;stroke-linecap:butt;stroke-width:.75}.st12{fill:url(#grad0-34)}.st13{fill:#fff}.st14{fill:url(#grad0-81)}.st15{fill:none}.st16{fill:#341a6e}.st17{fill:#949494}.st18{fill:#a3a3a3}.st19{fill:#32bedd}.st20{fill:#9cebff}.st20,.st21,.st22,.st23,.st24,.st25,.st26,.st27,.st28{stroke:none;stroke-linecap:butt;stroke-width:.75}.st21{fill:#50e6ff}.st22{fill:url(#grad0-160)}.st23{fill:#3cd4c2}.st24{fill:url(#grad0-170)}.st25{fill:#0078d4}.st26{fill:url(#grad0-176)}.st27{fill:url(#grad0-180)}.st28{fill:#c3f1ff}.st29{fill:url(#grad0-187)}.st29,.st30,.st31{stroke:none;stroke-linecap:butt;stroke-width:.75}.st30{fill:#fff;fill-opacity:.8}.st31{fill:url(#grad0-193)}.st32,.st33{stroke:#e97132}.st32{marker-end:url(#mrkr4-199);stroke-linecap:round;stroke-linejoin:round;stroke-width:1.5}.st33{fill:#e97132;fill-opacity:1;stroke-opacity:1;stroke-width:.37313432835821}.st34,.st35{stroke:#3c3c41}.st34{marker-end:url(#mrkr4-205);stroke-width:1}.st35{fill:#3c3c41;fill-opacity:1;stroke-opacity:1;stroke-width:.28409090909091}.st36,.st37{marker-end:url(#mrkr4-205);stroke:#3c3c41;stroke-linecap:round;stroke-linejoin:round;stroke-width:1}.st37{marker-end:url(#mrkr4-231);stroke:#000}.st38{fill:#000;fill-opacity:1;stroke:#000;stroke-opacity:1;stroke-width:.28409090909091}.st39,.st40{stroke:#a02b93}.st39{marker-end:url(#mrkr5-237);stroke-dasharray:7,5;stroke-width:1}.st40{fill:#a02b93;fill-opacity:1;stroke-opacity:1;stroke-width:.28409090909091}.st41,.st42{stroke:#4472c4}.st41{marker-start:url(#mrkr4-243);stroke-dasharray:7,5;stroke-width:1}.st42{fill:#4472c4;fill-opacity:1;stroke-opacity:1;stroke-width:.28409090909091}.st43,.st44{fill:url(#grad0-249);stroke:none;stroke-linecap:butt;stroke-width:.75}.st44{fill:#1490df}.st45{fill:#fff;stroke:#3c3c41;stroke-width:.25}.st46,.st47{stroke:#4472c4}.st46{marker-end:url(#mrkr4-269);stroke-dasharray:10.5,7.5;stroke-linecap:round;stroke-linejoin:round;stroke-width:1.5}.st47{fill:#4472c4;fill-opacity:1;stroke-opacity:1;stroke-width:.37313432835821}.st48,.st49{stroke:#ea700e}.st48{marker-end:url(#mrkr4-278);stroke-linecap:round;stroke-linejoin:round;stroke-width:1.5}.st49{fill:#ea700e;fill-opacity:1;stroke-opacity:1;stroke-width:.37313432835821}.st50,.st51{stroke:#a02b93}.st50{marker-end:url(#mrkr4-287);stroke-dasharray:10.5,7.5;stroke-linecap:round;stroke-linejoin:round;stroke-width:1.5}.st51{fill:#a02b93;fill-opacity:1;stroke-opacity:1;stroke-width:.37313432835821}.st52,.st53{fill:#fff;stroke:#c7c8c8;stroke-width:.25}.st53{fill:#c5dff5}.st54{fill:url(#grad0-309)}.st54,.st55,.st56,.st57{stroke:none;stroke-linecap:butt;stroke-width:.75}.st55{fill:#005ba1}.st56{fill:#f2f2f2}.st57{fill:#c5dff5}.st58{fill:none;stroke:#2da6ff;stroke-dasharray:7,5;stroke-width:1}.st59,.st60{stroke:#e97132}.st59{marker-end:url(#mrkr4-396);stroke-width:1}.st60{fill:#e97132;fill-opacity:1;stroke-opacity:1;stroke-width:.28409090909091}.st61,.st62{stroke:#ea700e}.st61{marker-start:url(#mrkr4-407);stroke-width:1}.st62{fill:#ea700e;fill-opacity:1;stroke-opacity:1;stroke-width:.28409090909091}.st63{fill:#000;font-family:Segoe UI;font-size:.833336em}.st64{fill:url(#grad0-417)}.st65{stroke:none;stroke-linecap:butt;stroke-width:.75;visibility:hidden}.st66{fill:url(#grad0-422)}.st67{fill:url(#grad0-427)}.st68{fill:url(#grad0-432)}.st69{fill:url(#grad0-437)}.st70,.st71{fill:url(#grad0-469);stroke:none;stroke-linecap:butt;stroke-width:.75}.st71{fill:#fff;fill-opacity:.6}.st72{fill:#5ea0ef}.st72,.st73,.st74,.st75,.st76,.st77,.st78{stroke:none;stroke-linecap:butt;stroke-width:.75}.st73{fill:#83b9f9;fill-opacity:.5}.st74{fill:url(#grad0-513)}.st75{fill:#198ab3}.st76{fill:#005294}.st77{fill:#08c}.st78{fill:#52d3ff}.st79{fill:#326ce5}.st80{fill:#fff}.st81{fill:#466bb0;stroke:none;stroke-linecap:butt}.st81,.st82{stroke-width:4.73758}.st82,.st83,.st84{stroke:none;stroke-linecap:butt}.st82{fill:#fff}.st83,.st84{fill:#b796f9;stroke-width:.75}.st84{fill:#552f99}.st85{fill:none;fill-rule:evenodd;font-size:12px;overflow:visible;stroke-linecap:square;stroke-miterlimit:3}</style><defs id="Patterns_And_Gradients"><linearGradient id="grad0-16" x1="0" x2="1" y1="0" y2="0" gradientTransform="rotate(-90 0.5 0.5)"><stop offset="0" stop-color="#0078d4" stop-opacity="1"/><stop offset=".155" stop-color="#1380da" stop-opacity="1"/><stop offset=".53" stop-color="#3c91e5" stop-opacity="1"/><stop offset=".82" stop-color="#559cec" stop-opacity="1"/><stop offset="1" stop-color="#5ea0ef" stop-opacity="1"/></linearGradient><linearGradient id="grad0-25" x1="0" x2="1" y1="0" y2="0" gradientTransform="rotate(-90 0.5 0.5)"><stop offset="0" stop-color="#005ba1" stop-opacity="1"/><stop offset="1" stop-color="#0078d4" stop-opacity="1"/></linearGradient><radialGradient id="grad4-30" cx=".5" cy="0" r="1.1"><stop offset="0" stop-color="gray" stop-opacity="1"/><stop offset=".19" stop-color="#a1a1a1" stop-opacity="1"/><stop offset=".4" stop-color="silver" stop-opacity="1"/><stop offset=".52" stop-color="#ccc" stop-opacity="1"/><stop offset=".63" stop-color="#c9c9c9" stop-opacity="1"/><stop offset=".715" stop-color="#bfbfbf" stop-opacity="1"/><stop offset=".785" stop-color="#afafaf" stop-opacity="1"/><stop offset=".85" stop-color="#999" stop-opacity="1"/><stop offset=".91" stop-color="gray" stop-opacity="1"/></radialGradient><linearGradient id="grad0-34" x1="0" x2="1" y1="0" y2="0" gradientTransform="rotate(-90 0.5 0.5)"><stop offset="0" stop-color="#5ea0ef" stop-opacity="1"/><stop offset="1" stop-color="#83b9f9" stop-opacity="1"/></linearGradient><linearGradient id="grad0-81" x1="0" x2="1" y1="0" y2="0" gradientTransform="rotate(0 0.5 0.5)"><stop offset="0" stop-color="#b77af4" stop-opacity="1"/><stop offset="1" stop-color="#773adc" stop-opacity="1"/></linearGradient><linearGradient id="grad0-160" x1="0" x2="1" y1="0" y2="0" gradientTransform="rotate(90 0.5 0.5)"><stop offset="0" stop-color="#37c2b1" stop-opacity="1"/><stop offset="1" stop-color="#258277" stop-opacity="1"/></linearGradient><linearGradient id="grad0-170" x1="0" x2="1" y1="0" y2="0" gradientTransform="rotate(-90 0.5 0.5)"><stop offset=".145" stop-color="#d2ebff" stop-opacity="1"/><stop offset=".505" stop-color="#dbf1fe" stop-opacity="1"/><stop offset=".995" stop-color="#f0fffd" stop-opacity="1"/></linearGradient><linearGradient id="grad0-176" x1="0" x2="1" y1="0" y2="0" gradientTransform="rotate(-90 0.5 0.5)"><stop offset=".155" stop-color="#0078d4" stop-opacity="1"/><stop offset=".355" stop-color="#0072ca" stop-opacity="1"/><stop offset=".69" stop-color="#0064b0" stop-opacity="1"/><stop offset=".85" stop-color="#005ba1" stop-opacity="1"/></linearGradient><linearGradient id="grad0-180" x1="0" x2="1" y1="0" y2="0" gradientTransform="rotate(-90 0.5 0.5)"><stop offset="0" stop-color="#0078d4" stop-opacity="1"/><stop offset=".125" stop-color="#107fd8" stop-opacity="1"/><stop offset=".515" stop-color="#3a91e5" stop-opacity="1"/><stop offset=".82" stop-color="#549cec" stop-opacity="1"/><stop offset="1" stop-color="#5ea0ef" stop-opacity="1"/></linearGradient><linearGradient id="grad0-187" x1="0" x2="1" y1="0" y2="0" gradientTransform="rotate(90 0.5 0.5)"><stop offset=".22" stop-color="#32d4f5" stop-opacity="1"/><stop offset="1" stop-color="#198ab3" stop-opacity="1"/></linearGradient><linearGradient id="grad0-193" x1="0" x2="1" y1="0" y2="0" gradientTransform="rotate(85.405746668733 0.5 0.5)"><stop offset=".22" stop-color="#32d4f5" stop-opacity="1"/><stop offset="1" stop-color="#198ab3" stop-opacity="1"/></linearGradient><linearGradient id="grad0-249" x1="0" x2="1" y1="0" y2="0" gradientTransform="rotate(-90 0.5 0.5)"><stop offset="0" stop-color="#5e9624" stop-opacity="1"/><stop offset=".24" stop-color="#6fb02a" stop-opacity="1"/><stop offset=".5" stop-color="#7cc52f" stop-opacity="1"/><stop offset=".755" stop-color="#83d232" stop-opacity="1"/><stop offset="1" stop-color="#86d633" stop-opacity="1"/></linearGradient><linearGradient id="grad0-309" x1="0" x2="1" y1="0" y2="0" gradientTransform="rotate(-90 0.5 0.5)"><stop offset="0" stop-color="#32bedd" stop-opacity="1"/><stop offset=".18" stop-color="#32caea" stop-opacity="1"/><stop offset=".41" stop-color="#32d2f2" stop-opacity="1"/><stop offset=".78" stop-color="#32d4f5" stop-opacity="1"/></linearGradient><linearGradient id="grad0-417" x1="0" x2="1" y1="0" y2="0" gradientTransform="rotate(0 0.5 0.5)"><stop offset=".13" stop-color="#a67af4" stop-opacity="1"/><stop offset=".45" stop-color="#a478f1" stop-opacity="1"/><stop offset=".6" stop-color="#9d72ea" stop-opacity="1"/><stop offset=".715" stop-color="#9167dd" stop-opacity="1"/><stop offset=".815" stop-color="#8158cb" stop-opacity="1"/><stop offset=".9" stop-color="#6c45b3" stop-opacity="1"/><stop offset=".97" stop-color="#552f99" stop-opacity="1"/></linearGradient><linearGradient id="grad0-422" x1="0" x2="1" y1="0" y2="0" gradientTransform="rotate(-45 0.5 0.5)"><stop offset="0" stop-color="#005ba1" stop-opacity="1"/><stop offset="1" stop-color="#0078d4" stop-opacity="1"/></linearGradient><linearGradient id="grad0-427" x1="0" x2="1" y1="0" y2="0" gradientTransform="rotate(45 0.5 0.5)"><stop offset="0" stop-color="#005ba1" stop-opacity="1"/><stop offset="1" stop-color="#003067" stop-opacity="1"/></linearGradient><linearGradient id="grad0-432" x1="0" x2="1" y1="0" y2="0" gradientTransform="rotate(-45 0.5 0.5)"><stop offset="0" stop-color="#0078d4" stop-opacity="1"/><stop offset="1" stop-color="#5ea0ef" stop-opacity="1"/></linearGradient><linearGradient id="grad0-437" x1="0" x2="1" y1="0" y2="0" gradientTransform="rotate(45 0.5 0.5)"><stop offset="0" stop-color="#83b9f9" stop-opacity="1"/><stop offset="1" stop-color="#5ea0ef" stop-opacity="1"/></linearGradient><linearGradient id="grad0-469" x1="0" x2="1" y1="0" y2="0" gradientTransform="rotate(-90 0.5 0.5)"><stop offset="0" stop-color="#773adc" stop-opacity="1"/><stop offset="1" stop-color="#a67af4" stop-opacity="1"/></linearGradient><linearGradient id="grad0-513" x1="0" x2="1" y1="0" y2="0" gradientTransform="rotate(-90 0.5 0.5)"><stop offset="0" stop-color="#45add3" stop-opacity="1"/><stop offset="1" stop-color="#33c9e2" stop-opacity="1"/></linearGradient></defs><defs id="Markers"><g id="lend4"><path style="stroke:none" d="M 2 1 L 0 0 L 2 -1 L 2 1"/></g><marker id="mrkr4-199" class="st33" markerUnits="strokeWidth" orient="auto" overflow="visible" refX="-5.36"><use transform="scale(-2.68,-2.68)" xlink:href="#lend4"/></marker><marker id="mrkr4-205" class="st35" markerUnits="strokeWidth" orient="auto" overflow="visible" refX="-7.04"><use transform="scale(-3.52,-3.52)" xlink:href="#lend4"/></marker><marker id="mrkr4-231" class="st38" markerUnits="strokeWidth" orient="auto" overflow="visible" refX="-7.04"><use transform="scale(-3.52,-3.52)" xlink:href="#lend4"/></marker><g id="lend5"><path style="stroke:none" d="M 2 1 L 0 0 L 1.98117 -0.993387 C 1.67173 -0.364515 1.67301 0.372641 1.98465 1.00043"/></g><marker id="mrkr5-237" class="st40" markerUnits="strokeWidth" orient="auto" overflow="visible" refX="-6.16"><use transform="scale(-3.52,-3.52)" xlink:href="#lend5"/></marker><marker id="mrkr4-243" class="st42" markerUnits="strokeWidth" orient="auto" overflow="visible" refX="6.68"><use transform="scale(3.52)" xlink:href="#lend4"/></marker><marker id="mrkr4-269" class="st47" markerUnits="strokeWidth" orient="auto" overflow="visible" refX="-5.36"><use transform="scale(-2.68,-2.68)" xlink:href="#lend4"/></marker><marker id="mrkr4-278" class="st49" markerUnits="strokeWidth" orient="auto" overflow="visible" refX="-5.36"><use transform="scale(-2.68,-2.68)" xlink:href="#lend4"/></marker><marker id="mrkr4-287" class="st51" markerUnits="strokeWidth" orient="auto" overflow="visible" refX="-5.36"><use transform="scale(-2.68,-2.68)" xlink:href="#lend4"/></marker><marker id="mrkr4-396" class="st60" markerUnits="strokeWidth" orient="auto" overflow="visible" refX="-7.04"><use transform="scale(-3.52,-3.52)" xlink:href="#lend4"/></marker><marker id="mrkr4-407" class="st62" markerUnits="strokeWidth" orient="auto" overflow="visible" refX="6.68"><use transform="scale(3.52)" xlink:href="#lend4"/></marker></defs><g><title>More complex</title><g id="shape293-1"><title>Sheet.293</title><rect width="1200" height="800" x="0" y="0" class="st1"/></g><g id="shape1-3" transform="translate(877.941,-473.382)"><title>圆角矩形.112</title><path d="M4.09 800 L238.41 800 A4.08665 4.08665 -180 0 0 242.5 795.91 L242.5 750.85 A4.08665 4.08665 -180 0 0 238.41 746.76 L4.09 746.76 A4.08665 4.08665 -180 0 0 0 750.85 L0 795.91 A4.08665 4.08665 -180 0 0 4.09 800 Z" class="st2"/></g><g id="shape2-5" transform="translate(81.6912,-130)"><title>圆角矩形</title><path d="M9.19 800 L623.31 800 A9.19103 9.19103 -180 0 0 632.5 790.81 L632.5 396.99 A9.19103 9.19103 -180 0 0 623.31 387.8 L9.19 387.8 A9.19103 9.19103 -180 0 0 0 396.99 L0 790.81 A9.19103 9.19103 -180 0 0 9.19 800 Z" class="st3"/></g><g id="shape3-7" transform="translate(102.941,-200)"><title>圆角矩形.58</title><path d="M9.94 800 L580.06 800 A9.94278 9.94278 -180 0 0 590 790.06 L590 487.74 A9.94278 9.94278 -180 0 0 580.06 477.8 L9.94 477.8 A9.94278 9.94278 -180 0 0 -0 487.74 L0 790.06 A9.94278 9.94278 -180 0 0 9.94 800 Z" class="st4"/></g><g id="shape4-9" transform="translate(271.2,-684.177)"><title>Sheet.4</title><desc>Internet</desc><rect width="57.6" height="20" x="0" y="780" class="st5"/><text x="7.98" y="793.6" class="st6">Internet</text></g><g id="group5-12" transform="translate(271.2,-709.177)"><title>云菜单</title><g id="shape6-13"><title>Sheet.6</title><path d="M57.6 787.21 A12.9351 12.9351 -180 0 0 46.37 774.78 A16.3112 16.3112 -180 0 0 29.57 759.18 A16.7316 16.7316 -180 0 0 13.58 770.08 A15.4413 15.4413 -180 0 0 -0 784.96 A15.6709 15.6709 -180 0 0 16.22 800 C16.71 800 17.19 799.98 17.65 799.94 L43.91 799.94 A2.73254 2.73254 -180 0 0 44.61 799.84 A13.0936 13.0936 -180 0 0 57.6 787.21 Z" class="st7"/></g></g><g id="shape7-17" transform="translate(235,-565)"><title>Sheet.7</title><desc>Application Gateway for Containers</desc><rect width="152" height="30" x="0" y="770" class="st5"/><text x="12.55" y="781.4" class="st6">Application Gateway for <tspan x="47.67" class="st8" dy="1.2em">Containers</tspan></text></g><g id="group8-21" transform="translate(278.27,-600)"><title>Sheet.8</title><g id="shape9-22" transform="translate(0,-3.06144)"><title>Sheet.9</title><path d="M46.73 779.59 C46.73 779.32 46.66 779.05 46.52 778.81 L35.64 759.95 C35.36 759.47 34.84 759.17 34.28 759.17 L12.52 759.17 C11.96 759.17 11.44 759.47 11.16 759.96 L0.28 778.79 C0 779.28 0 779.87 0.28 780.36 L11.16 799.21 C11.44 799.69 11.96 799.99 12.52 800 L34.28 800 C34.84 799.99 35.36 799.69 35.64 799.21 L46.52 780.38 C46.66 780.13 46.73 779.86 46.73 779.59 L46.73 779.59 Z" class="st9"/><path d="M46.73 779.59 C46.73 779.32 46.66 779.05 46.52 778.81 L35.64 759.95 C35.36 759.47 34.84 759.17 34.28 759.17 L12.52 759.17 C11.96 759.17 11.44 759.47 11.16 759.96 L0.28 778.79 C0 779.28 0 779.87 0.28 780.36 L11.16 799.21 C11.44 799.69 11.96 799.99 12.52 800 L34.28 800 C34.84 799.99 35.36 799.69 35.64 799.21 L46.52 780.38 C46.66 780.13 46.73 779.86 46.73 779.59" class="st10"/></g><g id="shape10-27" transform="translate(7.03534,-3.68357)"><title>Sheet.10</title><path d="M32.87 794.23 L17.94 779.31 L17.94 779.15 L17.79 779.15 L17.5 778.87 L17.21 779.15 L15.7 779.15 L15.28 778.74 L0 794.24 L2.17 796.39 L14.89 783.49 L14.89 800 L17.94 800 L17.94 783.63 L30.71 796.39 L32.87 794.23 Z" class="st11"/></g><g id="shape11-31" transform="translate(19.7684,1.13687E-13)"><title>uuid-ece1a08e-bbe9-4a7a-9146-1f</title><ellipse cx="3.684" cy="796.316" class="st12" rx="3.684" ry="3.684"/></g><g id="shape12-35" transform="translate(17.1088,-17.4095)"><title>Sheet.12</title><path d="M0.02 793.59 C0 797.1 2.82 799.96 6.33 799.98 C9.83 800 12.69 797.18 12.71 793.67 C12.73 790.81 10.83 788.29 8.07 787.52 L8.07 782.98 C9.98 782 10.73 779.65 9.74 777.74 C8.76 775.84 6.41 775.09 4.5 776.07 C2.59 777.06 1.85 779.4 2.83 781.32 C3.2 782.03 3.78 782.61 4.5 782.98 L4.5 787.64 C1.87 788.43 0.05 790.84 0.02 793.59 Z" class="st13"/></g><g id="shape13-37" transform="translate(19.7684,-20.108)"><title>uuid-8e562190-eca9-4949-bb17-df</title><ellipse cx="3.684" cy="796.316" class="st12" rx="3.684" ry="3.684"/></g><g id="shape14-40" transform="translate(4.43792,-4.68418)"><title>uuid-fde97792-49bb-484d-abc1-e7</title><ellipse cx="3.684" cy="796.316" class="st12" rx="3.684" ry="3.684"/></g><g id="shape15-43" transform="translate(35.143,-4.68418)"><title>uuid-e202974c-be82-433a-a8e4-94</title><ellipse cx="3.684" cy="796.316" class="st12" rx="3.684" ry="3.684"/></g></g><g id="group16-46" transform="translate(580,-406.106)"><title>Sheet.16</title><g id="shape17-47" transform="translate(0,-3.06144)"><title>Sheet.17</title><path d="M46.73 779.59 C46.73 779.32 46.66 779.05 46.52 778.81 L35.64 759.95 C35.36 759.47 34.84 759.17 34.28 759.17 L12.52 759.17 C11.96 759.17 11.44 759.47 11.16 759.96 L0.28 778.79 C0 779.28 0 779.87 0.28 780.36 L11.16 799.21 C11.44 799.69 11.96 799.99 12.52 800 L34.28 800 C34.84 799.99 35.36 799.69 35.64 799.21 L46.52 780.38 C46.66 780.13 46.73 779.86 46.73 779.59 L46.73 779.59 Z" class="st9"/><path d="M46.73 779.59 C46.73 779.32 46.66 779.05 46.52 778.81 L35.64 759.95 C35.36 759.47 34.84 759.17 34.28 759.17 L12.52 759.17 C11.96 759.17 11.44 759.47 11.16 759.96 L0.28 778.79 C0 779.28 0 779.87 0.28 780.36 L11.16 799.21 C11.44 799.69 11.96 799.99 12.52 800 L34.28 800 C34.84 799.99 35.36 799.69 35.64 799.21 L46.52 780.38 C46.66 780.13 46.73 779.86 46.73 779.59" class="st10"/></g><g id="shape18-51" transform="translate(7.03534,-3.68357)"><title>Sheet.18</title><path d="M32.87 794.23 L17.94 779.31 L17.94 779.15 L17.79 779.15 L17.5 778.87 L17.21 779.15 L15.7 779.15 L15.28 778.74 L0 794.24 L2.17 796.39 L14.89 783.49 L14.89 800 L17.94 800 L17.94 783.63 L30.71 796.39 L32.87 794.23 Z" class="st11"/></g><g id="shape19-54" transform="translate(19.7684,1.13687E-13)"><title>uuid-ece1a08e-bbe9-4a7a-9146-1f</title><ellipse cx="3.684" cy="796.316" class="st12" rx="3.684" ry="3.684"/></g><g id="shape20-57" transform="translate(17.1088,-17.4095)"><title>Sheet.20</title><path d="M0.02 793.59 C0 797.1 2.82 799.96 6.33 799.98 C9.83 800 12.69 797.18 12.71 793.67 C12.73 790.81 10.83 788.29 8.07 787.52 L8.07 782.98 C9.98 782 10.73 779.65 9.74 777.74 C8.76 775.84 6.41 775.09 4.5 776.07 C2.59 777.06 1.85 779.4 2.83 781.32 C3.2 782.03 3.78 782.61 4.5 782.98 L4.5 787.64 C1.87 788.43 0.05 790.84 0.02 793.59 Z" class="st13"/></g><g id="shape21-59" transform="translate(19.7684,-20.108)"><title>uuid-8e562190-eca9-4949-bb17-df</title><ellipse cx="3.684" cy="796.316" class="st12" rx="3.684" ry="3.684"/></g><g id="shape22-62" transform="translate(4.43792,-4.68418)"><title>uuid-fde97792-49bb-484d-abc1-e7</title><ellipse cx="3.684" cy="796.316" class="st12" rx="3.684" ry="3.684"/></g><g id="shape23-65" transform="translate(35.143,-4.68418)"><title>uuid-e202974c-be82-433a-a8e4-94</title><ellipse cx="3.684" cy="796.316" class="st12" rx="3.684" ry="3.684"/></g></g><g id="shape24-68" transform="translate(534,-375)"><title>Sheet.24</title><desc>ALB controller</desc><rect width="152" height="30" x="0" y="770" class="st5"/><text x="38.78" y="788.6" class="st6">ALB controller</text></g><g id="shape25-71" transform="translate(525,-273)"><title>Sheet.25</title><desc>Kubernetes</desc><rect width="152" height="30" x="0" y="770" class="st5"/><text x="46.12" y="788.6" class="st6">Kubernetes</text></g><g id="shape26-74" transform="translate(98,-170)"><title>Sheet.26</title><desc>AKS Cluster</desc><rect width="152" height="30" x="0" y="770" class="st5"/><text x="4" y="788.6" class="st6">AKS Cluster</text></g><g id="group27-77" transform="translate(107.694,-206.106)"><title>Kubernetes 服务.60</title><g id="shape28-78" transform="translate(7.59885,-29.9807)"><title>Sheet.28</title><path d="M7.39 786.09 L0 787.55 L0 798.32 L7.39 800 L14.81 796.83 L14.81 788.79 L7.39 786.09 Z" class="st14"/></g><g id="shape29-82" transform="translate(7.75393,-30.1141)"><title>Sheet.29</title><path d="M7.52 799.97 L14.29 797.04 a0.516928 0.552131 -180 0 0 0.310157 -0.386492 L14.6 789.37 a0.542775 0.579738 -180 0 0 -0.336003 -0.496918 L7.42 786.39 L7.11 786.39 L0.39 787.71 a0.516928 0.552131 -180 0 0 -0.387696 0.496918 L0 797.95 a0.491082 0.524524 -180 0 0 0.387696 0.524524 L7.19 800 a0.827085 0.88341 -180 0 0 0.336003 -0.0276066 Z" class="st15"/></g><g id="shape30-84" transform="translate(7.59885,-29.9807)"><title>Sheet.30</title><path d="M0 787.55 L0 798.32 L7.47 800 L7.47 786.2 L0 787.55 ZM3.15 797.49 L1.06 797.05 L1.06 788.76 L3.15 788.41 L3.15 797.49 ZM6.41 798.12 L4.01 797.71 L4.01 788.24 L6.41 787.8 L6.41 798.12 Z" class="st16"/></g><g id="shape31-86" transform="translate(23.5978,-29.8427)"><title>Sheet.31</title><path d="M7.39 786.09 L0 787.55 L0 798.32 L7.39 800 L14.78 796.8 L14.78 788.79 L7.39 786.09 Z" class="st14"/></g><g id="shape32-89" transform="translate(23.5978,-29.8427)"><title>Sheet.32</title><path d="M0 787.55 L0 798.32 L7.42 800 L7.42 786.2 L0 787.55 ZM3.13 797.49 L1.03 797.05 L1.03 788.76 L3.13 788.41 L3.13 797.49 ZM6.38 798.12 L3.98 797.71 L3.98 788.24 L6.38 787.77 L6.38 798.12 Z" class="st16"/></g><g id="shape33-91" transform="translate(0.0258464,-15.1284)"><title>Sheet.33</title><path d="M7.39 786.09 L0 787.55 L0 798.32 L7.39 800 L14.81 796.83 L14.81 788.79 L7.39 786.09 Z" class="st14"/></g><g id="shape34-94" transform="translate(4.64628E-14,-15.2112)"><title>Sheet.34</title><path d="M0 787.63 L0 798.32 L7.47 800 L7.47 786.2 L0 787.63 ZM3.13 797.6 L1.03 797.13 L1.03 788.85 L3.13 788.46 L3.13 797.6 ZM6.41 798.32 L4.01 797.9 L4.01 788.32 L6.41 787.88 L6.41 798.32 Z" class="st16"/></g><g id="shape35-96" transform="translate(15.9731,-15.2112)"><title>Sheet.35</title><path d="M7.39 786.06 L0 787.52 L0 798.29 L7.39 800 L14.78 796.8 L14.78 788.76 L7.39 786.06 Z" class="st14"/></g><g id="shape36-99" transform="translate(15.9731,-15.2112)"><title>Sheet.36</title><path d="M0 787.52 L0 798.32 L7.44 800 L7.44 786.2 L0 787.52 ZM3.13 797.49 L1.03 797.02 L1.03 788.74 L3.13 788.35 L3.13 797.49 ZM6.38 798.1 L3.98 797.68 L3.98 788.21 L6.38 787.77 L6.38 798.1 Z" class="st16"/></g><g id="shape37-101" transform="translate(31.9203,-15.1008)"><title>Sheet.37</title><path d="M7.39 786.09 L0 787.55 L0 798.32 L7.39 800 L14.81 796.83 L14.81 788.79 L7.39 786.09 Z" class="st14"/></g><g id="shape38-104" transform="translate(31.9203,-15.2112)"><title>Sheet.38</title><path d="M0 787.66 L0 798.32 L7.47 800 L7.47 786.2 L0 787.66 ZM3.15 797.63 L1.06 797.16 L1.06 788.87 L3.15 788.49 L3.15 797.63 ZM6.41 798.23 L4.01 797.82 L4.01 788.35 L6.41 787.91 L6.41 798.23 Z" class="st16"/></g><g id="shape39-106" transform="translate(7.41792,-0.110426)"><title>Sheet.39</title><path d="M7.39 786.09 L0 787.52 L0 798.29 L7.39 800 L14.81 796.8 L14.81 788.79 L7.39 786.09 Z" class="st14"/></g><g id="shape40-109" transform="translate(7.54716,-0.301157)"><title>Sheet.40</title><path d="M7.55 799.97 L14.29 797.21 a0.465236 0.496918 -180 0 0 0.310157 -0.496918 L14.6 789.53 a0.516928 0.552131 -180 0 0 -0.336003 -0.607344 L7.44 786.44 a0.439389 0.469311 -180 0 0 -0.310157 0 L0.41 787.74 a0.491082 0.524524 -180 0 0 -0.413543 0.524524 L0 798.04 a0.491082 0.524524 -180 0 0 0.387696 0.524524 L7.19 799.97 a0.594468 0.634951 -180 0 0 0.36185 0 Z" class="st15"/></g><g id="shape41-111" transform="translate(7.41792,-0.110426)"><title>Sheet.41</title><path d="M0 787.52 L0 798.29 L7.47 800 L7.47 785.98 L0 787.52 ZM3.15 797.49 L1.06 797.02 L1.06 788.74 L3.15 788.35 L3.15 797.49 ZM6.41 798.12 L4.01 797.71 L4.01 788.21 L6.41 787.77 L6.41 798.12 Z" class="st16"/></g><g id="shape42-113" transform="translate(23.391,-2.27374E-13)"><title>Sheet.42</title><path d="M7.39 786.09 L0 787.55 L0 798.32 L7.39 800 L14.81 796.83 L14.81 788.79 L7.39 786.09 Z" class="st14"/></g><g id="shape43-116" transform="translate(23.391,-2.27374E-13)"><title>Sheet.43</title><path d="M0 787.55 L0 798.32 L7.47 800 L7.47 786.2 L0 787.55 ZM3.15 797.52 L1.06 797.05 L1.06 788.76 L3.15 788.38 L3.15 797.52 ZM6.41 798.12 L4.01 797.71 L4.01 788.24 L6.41 787.8 L6.41 798.12 Z" class="st16"/></g></g><g id="shape44-118" transform="translate(739.672,-255.659)"><title>Sheet.44</title><desc>Kubernetes Gateway APIs</desc><rect width="152" height="30" x="0" y="770" class="st5"/><text x="8.83" y="788.6" class="st6">Kubernetes Gateway APIs</text></g><g id="shape45-121" transform="translate(927.541,-388.053)"><title>Sheet.45</title><desc>Deploy Application Gateway for Containers</desc><rect width="152" height="30" x="0" y="770" class="st5"/><text x="25.56" y="781.4" class="st6">Deploy Application <tspan x="14.27" class="st8" dy="1.2em">Gateway for Containers</tspan></text></g><g id="shape46-125" transform="translate(942.806,-485)"><title>Sheet.46</title><desc>Azure Resource Manager</desc><rect width="152" height="30" x="0" y="770" class="st5"/><text x="9.69" y="788.6" class="st6">Azure Resource Manager</text></g><g id="shape49-128" transform="translate(108,-80)"><title>Sheet.49</title><desc>VNet</desc><rect width="42.895" height="30" x="0" y="770" class="st5"/><text x="4" y="788.6" class="st6">VNet</text></g><g id="group67-131" transform="translate(896.076,-485)"><title>Icon-general-7</title><g id="group68-132"><title>Sheet.68</title><g id="group69-133"><title>Sheet.69</title><g id="shape70-134"><title>Sheet.70</title><path d="M0 796.38 a0.299444 0.299444 -180 0 0 0.149722 0.262014 L2.32 797.85 L5.99 799.97 a0.31816 0.31816 -180 0 0 0.430451 -0.112292 L7.65 797.76 a0.299444 0.299444 -180 0 0 -0.112292 -0.393021 L3.24 794.93 a0.31816 0.31816 0 0 1 -0.149722 -0.262014 L3.09 775.36 a0.299444 0.299444 0 0 1 0.149722 -0.262014 L7.54 772.66 a0.299444 0.299444 -180 0 0 0.112292 -0.393021 L6.42 770.17 a0.31816 0.31816 -180 0 0 -0.430451 -0.149722 L2.4 772.1 L0.15 773.36 a0.299444 0.299444 -180 0 0 -0.149722 0.262014 L0 796.38 Z" class="st17"/></g><g id="shape71-136" transform="translate(0,-24.7919)"><title>Sheet.71</title><path d="M3.07 800 L3.18 799.89 L7.49 797.45 a0.262014 0.262014 -180 0 0 0.112292 -0.393021 L6.36 794.97 a0.280729 0.280729 -180 0 0 -0.411736 -0.149722 L2.34 796.89 L0.11 798.15 C0.11 798.15 0.02 798.15 0 798.26 L1.68 799.21 L3.07 800 Z" class="st18"/></g><g id="shape72-138" transform="translate(0.0187153,-0.0677449)"><title>Sheet.72</title><path d="M7.47 797.4 L3.16 794.96 a0.411736 0.411736 0 0 1 -0.131007 -0.168437 L0 796.67 L0.09 796.67 L2.25 797.88 L5.99 799.96 a0.280729 0.280729 -180 0 0 0.411736 -0.112292 L7.64 797.75 a0.262014 0.262014 -180 0 0 -0.168437 -0.35559 Z" class="st18"/></g></g><g id="shape73-140" transform="translate(24.1401,0)"><title>Sheet.73</title><path d="M7.68 796.38 a0.299444 0.299444 0 0 1 -0.149722 0.262014 L5.36 797.85 L1.69 799.97 a0.31816 0.31816 0 0 1 -0.430451 -0.112292 L0.02 797.76 a0.299444 0.299444 0 0 1 0.112292 -0.393021 L4.44 794.93 a0.31816 0.31816 -180 0 0 0.149722 -0.262014 L4.59 775.36 a0.299444 0.299444 -180 0 0 -0.149722 -0.262014 L0.13 772.66 a0.299444 0.299444 0 0 1 -0.112292 -0.393021 L1.26 770.17 a0.31816 0.31816 0 0 1 0.430451 -0.149722 L5.28 772.06 L7.53 773.32 a0.299444 0.299444 0 0 1 0.149722 0.262014 L7.68 796.38 Z" class="st17"/></g><g id="shape74-142" transform="translate(24.1794,-24.7919)"><title>Sheet.74</title><path d="M4.57 800 L4.45 799.89 L0.15 797.45 a0.262014 0.262014 0 0 1 -0.112292 -0.393021 L1.27 794.97 a0.280729 0.280729 0 0 1 0.411736 -0.149722 L5.3 796.86 L7.52 798.11 C7.52 798.11 7.52 798.11 7.64 798.22 L5.95 799.18 L4.57 800 Z" class="st18"/></g><g id="shape75-144" transform="translate(24.2208,-0.0677449)"><title>Sheet.75</title><path d="M0.11 797.4 L4.41 794.96 a0.411736 0.411736 -180 0 0 0.131007 -0.168437 L7.58 796.67 L5.42 797.88 L1.68 799.96 a0.280729 0.280729 0 0 1 -0.411736 -0.112292 L0.03 797.75 a0.262014 0.262014 0 0 1 0.0748611 -0.35559 Z" class="st18"/></g><g id="shape76-146" transform="translate(15.8893,-3.4752)"><title>Sheet.76</title><path d="M9.96 782.73 L9.96 794.22 L0 800 L0 788.49 L9.96 782.73 Z" class="st19"/></g><g id="shape77-148" transform="translate(5.95146,-14.9664)"><title>Sheet.77</title><path d="M19.89 794.22 L9.96 800 L0 794.22 L9.96 788.43 L19.89 794.22 Z" class="st20"/></g><g id="shape78-150" transform="translate(5.95146,-3.4752)"><title>Sheet.78</title><path d="M9.94 788.51 L9.94 800 L0 794.22 L0 782.73 L9.94 788.51 Z" class="st21"/></g><g id="shape79-152" transform="translate(5.95146,-3.4752)"><title>Sheet.79</title><path d="M0 794.22 L9.94 788.49 L9.94 800 L0 794.22 Z" class="st20"/></g><g id="shape80-154" transform="translate(15.8893,-3.4752)"><title>Sheet.80</title><path d="M9.96 794.22 L0 788.49 L0 800 L9.96 794.22 Z" class="st21"/></g></g></g><g id="group81-156" transform="translate(785.341,-283.227)"><title>API 代理</title><g id="shape82-157" transform="translate(20.8992,-8.1984)"><title>Sheet.82</title><path d="M-0 792.44 A7.56498 7.56498 -180 0 0 7.56 800 L7.76 800 A7.56498 7.56498 -180 0 0 15.32 792.44 L15.32 792.24 A7.56498 7.56498 -180 0 0 7.76 784.68 L7.56 784.68 A7.56498 7.56498 -180 0 0 -0 792.24 L0 792.44 Z" class="st22"/></g><g id="shape83-161"><title>Sheet.83</title><path d="M25.6 795.93 A12.0736 12.0736 0 0 1 25.55 772.29 A2.0768 2.0768 -180 1 0 24.7 768.23 A16.2912 16.2912 -180 0 0 11.94 782.06 L8.24 782.06 A4.3232 4.3232 -180 0 0 4.44 779.82 L4.33 779.82 A4.3296 4.3296 -180 0 0 -0 784.13 L0 784.24 A4.3296 4.3296 -180 0 0 4.33 788.57 L4.44 788.57 A4.3232 4.3232 -180 0 0 8.28 786.21 L11.95 786.21 A16.2784 16.2784 -180 0 0 24.76 800 A2.07792 2.07792 -180 1 0 25.6 795.93 Z" class="st23"/></g><g id="shape84-163" transform="translate(30.3808,0)"><title>Sheet.84</title><path d="M22.89 779.8 L22.78 779.8 A4.3232 4.3232 -180 0 0 18.98 782.06 L15.28 782.06 A16.2912 16.2912 -180 0 0 2.52 768.23 A2.0768 2.0768 -180 0 0 1.67 772.29 A12.0736 12.0736 0 0 1 1.62 795.93 A2.07728 2.07728 -180 1 0 2.45 800 A16.2784 16.2784 -180 0 0 15.25 786.21 L18.93 786.21 A4.3232 4.3232 -180 0 0 22.77 788.57 L22.88 788.57 A4.3296 4.3296 -180 0 0 27.22 784.24 L27.22 784.13 A4.3296 4.3296 -180 0 0 22.89 779.8 Z" class="st23"/></g></g><g id="group85-165" transform="translate(974.741,-276.106)"><title>macOS 菜单</title><g id="group86-166"><title>Sheet.86</title><g id="shape87-167" transform="translate(0,-14.8352)"><title>Sheet.87</title><path d="M0 798.08 A1.92324 1.92324 -180 0 0 1.92 800 L55.68 800 A1.92324 1.92324 -180 0 0 57.6 798.08 L57.6 763.52 A1.92324 1.92324 -180 0 0 55.68 761.6 L1.92 761.6 A1.92324 1.92324 -180 0 0 -0 763.52 L0 798.08 Z" class="st24"/></g><g id="shape88-171" transform="translate(0,-14.8352)"><title>Sheet.88</title><path d="M55.02 764.18 L55.02 797.42 L2.58 797.42 L2.58 764.18 L55.02 764.18 ZM55.68 761.6 L1.92 761.6 A1.92 1.92 -180 0 0 -0 763.52 L0 798.08 A1.92 1.92 -180 0 0 1.92 800 L55.68 800 A1.92 1.92 -180 0 0 57.6 798.08 L57.6 763.52 A1.92 1.92 -180 0 0 55.68 761.6 L55.68 761.6 Z" class="st25"/></g><g id="shape89-173" transform="translate(14.4,-2.27374E-13)"><title>Sheet.89</title><path d="M25.94 796.78 C20.25 795.89 20.02 791.78 20.04 785.16 L8.74 785.16 C8.74 791.78 8.53 795.89 2.84 796.78 A3.3536 3.3536 -180 0 0 0 800 L28.8 800 A3.3696 3.3696 -180 0 0 25.94 796.78 Z" class="st26"/></g><g id="shape90-177" transform="translate(0,-14.8352)"><title>Sheet.90</title><path d="M0 791.03 L57.6 791.03 L57.6 798.86 A1.1392 1.1392 0 0 1 56.46 800 L1.94 800 A1.9424 1.9424 0 0 1 0 798.06 L0 791.03 Z" class="st27"/></g><g id="shape91-181" transform="translate(26.4096,-16.928)"><title>Sheet.91</title><ellipse cx="2.39" cy="797.61" class="st28" rx="2.39" ry="2.39"/></g></g></g><g id="group92-183" transform="translate(1012.94,-276.106)"><title>用户</title><g id="shape93-184"><title>Sheet.93</title><path d="M28.86 800 A2.80993 2.784 -180 0 0 31.66 797.22 a0.910804 0.9024 -180 0 0 5.68434E-14 -0.3264 C30.54 788.12 25.52 780.97 15.83 780.97 C6.14 780.97 0.99 787.02 0 796.91 A2.82931 2.8032 -180 0 0 2.54 800 L28.86 800 Z" class="st29"/></g><g id="shape94-188" transform="translate(11.0265,-6.0288)"><title>Sheet.94</title><path d="M4.81 789.08 A8.89488 8.8128 0 0 1 -0 787.67 L4.81 800 L9.53 787.75 A8.7786 8.6976 0 0 1 4.81 789.08 Z" class="st30"/></g><g id="shape95-190" transform="translate(6.97637,-16.9728)"><title>Sheet.95</title><ellipse cx="8.876" cy="791.206" class="st31" rx="8.876" ry="8.794"/></g></g><g id="shape96-194" transform="translate(1100,112.5) rotate(90)"><title>Sheet.96</title><path d="M0 800 L24.46 800" class="st32"/></g><g id="shape98-200" transform="translate(330,-526.618)"><title>Sheet.98</title><path d="M669 800 L669 704.67 L7.04 705.65" class="st34"/></g><g id="shape99-206" transform="translate(199.191,370) rotate(-90)"><title>Sheet.99</title><path d="M0 800 L36.34 800" class="st36"/></g><g id="shape100-211" transform="translate(199.191,470) rotate(-90)"><title>Sheet.100</title><path d="M0 800 L44.44 800" class="st36"/></g><g id="shape101-216" transform="translate(957.557,1300) rotate(180)"><title>Sheet.101</title><path d="M0 800 L77.58 800" class="st36"/></g><g id="shape102-221" transform="translate(762.941,1300) rotate(180)"><title>Sheet.102</title><path d="M0 800 L115.9 800" class="st36"/></g><g id="shape103-226" transform="translate(-196.365,475.455) rotate(-90)"><title>Sheet.103</title><path d="M0 800 L49.53 800" class="st37"/></g><g id="shape104-232" transform="translate(605,-450)"><title>Sheet.104</title><path d="M0 800 L0 750 L266.78 751.58" class="st39"/></g><g id="shape105-238" transform="translate(330,-450)"><title>Sheet.105</title><path d="M6.68 645 L7.04 645 L270 645 L270 800" class="st41"/></g><g id="group106-244" transform="translate(95,-115)"><title>地址空间菜单</title><g id="group107-245"><title>Sheet.107</title><g id="shape108-246" transform="translate(16.3705,-12.2587)"><title>Sheet.108</title><path d="M2.73 793.42 A3.88484 3.84784 -180 1 0 6.62 797.26 A3.86996 3.83309 -180 0 0 2.73 793.42 Z" class="st43"/></g><g id="group109-250"><title>Sheet.109</title><g id="shape110-251" transform="translate(568.889,1346.73) rotate(134.919)"><title>Sheet.110</title><path d="M0.84 778.07 L3.47 778.07 a0.841399 0.841422 0 0 1 0.841399 0.841422 L4.31 798.32 A1.6828 1.68284 0 0 1 2.63 800 L0 800 L0 778.91 a0.841399 0.841422 0 0 1 0.841399 -0.844385 Z" class="st21"/></g><g id="shape111-253" transform="translate(564.229,218.443) rotate(44.919)"><title>Sheet.111</title><path d="M0.83 778.38 L3.46 778.38 a0.841422 0.841399 0 0 1 0.841422 0.841399 L4.3 800 L1.68 800 A1.68284 1.6828 0 0 1 0 798.32 L0 779.22 a0.841422 0.841399 0 0 1 0.841422 -0.841399 L0.83 778.38 Z" class="st44"/></g><g id="shape112-255" transform="translate(599.151,232.452) rotate(45.081)"><title>Sheet.112</title><path d="M0 778.07 L2.63 778.07 A1.6828 1.68284 0 0 1 4.31 779.75 L4.31 799.16 a0.841399 0.841422 0 0 1 -0.841399 0.841422 L0.84 800 a0.841399 0.841422 0 0 1 -0.841399 -0.841422 L0 778.07 Z" class="st21"/></g><g id="shape113-257" transform="translate(600.872,1336.09) rotate(135.081)"><title>Sheet.113</title><path d="M1.68 778.38 L4.31 778.38 L4.31 799.16 a0.841422 0.841399 0 0 1 -0.841422 0.841399 L0.84 800 a0.841422 0.841399 0 0 1 -0.841422 -0.841399 L0 780.06 A1.68284 1.6828 0 0 1 1.68 778.38 L1.68 778.38 Z" class="st44"/></g></g><g id="shape114-259" transform="translate(28.8734,-12.2587)"><title>Sheet.114</title><path d="M2.73 793.42 A3.88484 3.84784 -180 1 0 6.62 797.26 A3.86996 3.83309 -180 0 0 2.73 793.42 Z" class="st43"/></g></g></g><g id="shape180-262" transform="translate(887,-40)"><title>圆角矩形.227</title><path d="M4.58 800 L270.42 800 A4.5833 4.5833 -180 0 0 275 795.42 L275 694.58 A4.5833 4.5833 -180 0 0 270.42 690 L4.58 690 A4.5833 4.5833 -180 0 0 -0 694.58 L0 795.42 A4.5833 4.5833 -180 0 0 4.58 800 Z" class="st45"/></g><g id="shape181-264" transform="translate(999.557,1475) rotate(180)"><title>Sheet.181</title><path d="M0 800 L76.58 800" class="st46"/></g><g id="shape182-270" transform="translate(1011,-110)"><title>Sheet.182</title><desc>Config propagation</desc><rect width="152" height="30" x="0" y="770" class="st5"/><text x="4" y="788.6" class="st6">Config propagation</text></g><g id="shape183-273" transform="translate(999.557,1505) rotate(180)"><title>Sheet.183</title><path d="M0 800 L76.58 800" class="st48"/></g><g id="shape184-279" transform="translate(1011,-80)"><title>Sheet.184</title><desc>Traffic flow</desc><rect width="152" height="30" x="0" y="770" class="st5"/><text x="4" y="788.6" class="st6">Traffic flow</text></g><g id="shape185-282" transform="translate(999.557,1535) rotate(180)"><title>Sheet.185</title><path d="M0 800 L76.58 800" class="st50"/></g><g id="shape186-288" transform="translate(1011,-50)"><title>Sheet.186</title><desc>Resource management</desc><rect width="152" height="30" x="0" y="770" class="st5"/><text x="4" y="788.6" class="st6">Resource management</text></g><g id="group188-291" transform="translate(130,-355)"><title>Sheet.188</title><g id="shape189-292"><title>Rounded Rectangle.59</title><path d="M3.03 800 L176.97 800 A3.03339 3.03339 -180 0 0 180 796.97 L180 715.53 A3.03339 3.03339 -180 0 0 176.97 712.5 L3.03 712.5 A3.03339 3.03339 -180 0 0 -0 715.53 L0 796.97 A3.03339 3.03339 -180 0 0 3.03 800 Z" class="st52"/></g><g id="shape190-294" transform="translate(43.2271,-2.49999)"><title>Sheet.190</title><desc>Sample app A</desc><rect width="98.724" height="22" x="0" y="778" class="st5"/><text x="12.57" y="792.6" class="st6">Sample app<tspan class="st8"> </tspan><tspan class="st8">A</tspan></text></g><g id="group191-299" transform="translate(10.2439,-30.345)"><title>Sheet.191</title><g id="shape192-300"><title>圆角矩形.60</title><path d="M1.29 800 L75.39 800 A1.29227 1.29227 -180 0 0 76.68 798.71 L76.68 761.29 A1.29227 1.29227 -180 0 0 75.39 760 L1.29 760 A1.29227 1.29227 -180 0 0 0 761.29 L0 798.71 A1.29227 1.29227 -180 0 0 1.29 800 Z" class="st53"/></g><g id="shape193-302" transform="translate(31.808,-3.1286)"><title>Sheet.193</title><desc>Pod A</desc><rect width="46.73" height="30" x="0" y="770" class="st5"/><text x="4" y="788.6" class="st6">Pod A</text></g><g id="group194-305" transform="translate(10.7561,-9.65499)"><title>Icon-web-50</title><g id="shape195-306"><title>Sheet.195</title><path d="M0.53 786.87 L18.51 786.87 L18.51 799.26 a0.602969 0.744527 0 0 1 -0.602969 0.744527 L1.13 800 a0.602969 0.744527 0 0 1 -0.602969 -0.744527 L0.53 786.87 Z" class="st54"/></g><g id="shape196-310" transform="translate(0,-13.1272)"><title>Sheet.196</title><path d="M1.13 795.27 L17.91 795.27 a0.602969 0.744527 0 0 1 0.602969 0.744527 L18.51 800 L0.53 800 L0.53 796 a0.602969 0.744527 0 0 1 0.602969 -0.731465 Z" class="st55"/></g><g id="shape197-312" transform="translate(2.95137,-14.5379)"><title>Sheet.197</title><path d="M0 799.63 a0.296202 0.365741 -180 0 0 0.296195 0.365733 L12.85 800 a0.296202 0.365741 -180 0 0 0.296195 -0.365733 L13.15 798.46 a0.296202 0.365741 -180 0 0 -0.296195 -0.365733 L0.3 798.09 a0.296202 0.365741 -180 0 0 -0.296195 0.365733 L0 799.63 Z" class="st56"/></g><g id="shape198-314" transform="translate(2.32725,-5.01576)"><title>Sheet.198</title><path d="M4.74 796.08 L3.79 800 L3.03 800 L2.44 797.39 A1.16362 1.43681 0 0 1 2.44 797.03 A1.05784 1.30619 0 0 1 2.44 797.37 L1.69 800 L0.94 800 L0 796.08 L0.75 796.08 L1.33 798.94 A1.51271 1.86785 0 0 1 1.33 799.28 A1.39635 1.72417 0 0 1 1.33 798.94 L2.09 796.08 L2.78 796.08 L3.36 798.96 A1.68197 2.07684 0 0 1 3.36 799.29 A1.59734 1.97234 0 0 1 3.36 798.96 L4.02 796.08 L4.74 796.08 Z" class="st13"/></g><g id="shape199-316" transform="translate(7.19331,-5.01576)"><title>Sheet.199</title><path d="M4.74 796.08 L3.79 800 L3.03 800 L2.44 797.39 A1.16362 1.43681 0 0 1 2.44 797.03 A1.957 2.41645 0 0 1 2.33 797.39 L1.69 800 L0.95 800 L0 796.08 L0.75 796.08 L1.34 798.94 A1.65023 2.03765 0 0 1 1.34 799.28 C1.34 799.18 1.34 799.06 1.4 798.94 L2.11 796.08 L2.78 796.08 L3.36 798.96 A1.68197 2.07684 0 0 1 3.36 799.29 A1.59734 1.97234 0 0 1 3.36 798.96 L4.05 796.08 L4.74 796.08 Z" class="st13"/></g><g id="shape200-318" transform="translate(12.0594,-5.01576)"><title>Sheet.200</title><path d="M4.75 796.08 L3.81 800 L3.05 800 L2.44 797.39 A2.04163 2.52094 0 0 1 2.44 797.03 A1.05784 1.30619 0 0 1 2.39 797.37 L1.69 800 L0.95 800 L0 796.08 L0.76 796.08 L1.34 798.94 A1.51271 1.86785 0 0 1 1.34 799.28 A1.34346 1.65886 0 0 1 1.34 798.94 L2.11 796.08 L2.75 796.08 L3.32 798.96 A1.68197 2.07684 0 0 1 3.32 799.29 A1.75601 2.16827 0 0 1 3.32 798.96 L4.05 796.08 L4.75 796.08 Z" class="st13"/></g></g></g><g id="group201-320" transform="translate(93.3659,-30.345)"><title>Sheet.201</title><g id="shape202-321"><title>圆角矩形.60</title><path d="M1.29 800 L75.39 800 A1.29227 1.29227 -180 0 0 76.68 798.71 L76.68 761.29 A1.29227 1.29227 -180 0 0 75.39 760 L1.29 760 A1.29227 1.29227 -180 0 0 0 761.29 L0 798.71 A1.29227 1.29227 -180 0 0 1.29 800 Z" class="st53"/></g><g id="shape203-323" transform="translate(31.808,-3.1286)"><title>Sheet.203</title><desc>Pod B</desc><rect width="39.826" height="30" x="0" y="770" class="st4"/><text x="4" y="788.6" class="st6">Pod <tspan class="st8">B</tspan></text></g><g id="group204-327" transform="translate(10.6341,-9.65499)"><title>Icon-web-50</title><g id="shape205-328"><title>Sheet.205</title><path d="M0.53 786.87 L18.63 786.87 L18.63 799.26 a0.606941 0.744527 0 0 1 -0.606941 0.744527 L1.14 800 a0.606941 0.744527 0 0 1 -0.606941 -0.744527 L0.53 786.87 Z" class="st57"/></g><g id="shape206-330" transform="translate(0,-13.1272)"><title>Sheet.206</title><path d="M1.14 795.27 L18.03 795.27 a0.606941 0.744527 0 0 1 0.606941 0.744527 L18.63 800 L0.53 800 L0.53 796 a0.606941 0.744527 0 0 1 0.606941 -0.731465 Z" class="st57"/></g><g id="shape207-332" transform="translate(2.97082,-14.5379)"><title>Sheet.207</title><path d="M0 799.63 a0.298153 0.365741 -180 0 0 0.298146 0.365733 L12.94 800 a0.298153 0.365741 -180 0 0 0.298146 -0.365733 L13.24 798.46 a0.298153 0.365741 -180 0 0 -0.298146 -0.365733 L0.3 798.09 a0.298153 0.365741 -180 0 0 -0.298146 0.365733 L0 799.63 Z" class="st57"/></g><g id="shape208-334" transform="translate(2.34258,-5.01576)"><title>Sheet.208</title><path d="M4.77 796.08 L3.81 800 L3.05 800 L2.46 797.39 A1.17129 1.43681 0 0 1 2.46 797.03 A1.06481 1.30619 0 0 1 2.46 797.37 L1.7 800 L0.95 800 L0 796.08 L0.76 796.08 L1.34 798.94 A1.52268 1.86785 0 0 1 1.34 799.28 A1.40555 1.72417 0 0 1 1.34 798.94 L2.11 796.08 L2.8 796.08 L3.39 798.96 A1.69305 2.07684 0 0 1 3.39 799.29 A1.60786 1.97234 0 0 1 3.39 798.96 L4.05 796.08 L4.77 796.08 Z" class="st57"/></g><g id="shape209-336" transform="translate(7.2407,-5.01576)"><title>Sheet.209</title><path d="M4.77 796.08 L3.81 800 L3.05 800 L2.46 797.39 A1.17129 1.43681 0 0 1 2.46 797.03 A1.9699 2.41645 0 0 1 2.34 797.39 L1.7 800 L0.96 800 L0 796.08 L0.76 796.08 L1.35 798.94 A1.6611 2.03765 0 0 1 1.35 799.28 C1.35 799.18 1.35 799.06 1.41 798.94 L2.12 796.08 L2.8 796.08 L3.39 798.96 A1.69305 2.07684 0 0 1 3.39 799.29 A1.60786 1.97234 0 0 1 3.39 798.96 L4.08 796.08 L4.77 796.08 Z" class="st57"/></g><g id="shape210-338" transform="translate(12.1388,-5.01576)"><title>Sheet.210</title><path d="M4.78 796.08 L3.83 800 L3.07 800 L2.46 797.39 A2.05508 2.52094 0 0 1 2.46 797.03 A1.06481 1.30619 0 0 1 2.41 797.37 L1.7 800 L0.96 800 L0 796.08 L0.77 796.08 L1.35 798.94 A1.52268 1.86785 0 0 1 1.35 799.28 A1.35231 1.65886 0 0 1 1.35 798.94 L2.12 796.08 L2.77 796.08 L3.34 798.96 A1.69305 2.07684 0 0 1 3.34 799.29 A1.76758 2.16827 0 0 1 3.34 798.96 L4.08 796.08 L4.78 796.08 Z" class="st57"/></g></g></g></g><g id="group234-340" transform="translate(325,-355)"><title>Sheet.234</title><g id="shape235-341"><title>Rounded Rectangle.59</title><path d="M3.03 800 L176.97 800 A3.03339 3.03339 -180 0 0 180 796.97 L180 715.53 A3.03339 3.03339 -180 0 0 176.97 712.5 L3.03 712.5 A3.03339 3.03339 -180 0 0 -0 715.53 L0 796.97 A3.03339 3.03339 -180 0 0 3.03 800 Z" class="st52"/></g><g id="shape236-343" transform="translate(43.2271,-2.49999)"><title>Sheet.236</title><desc>Sample app B</desc><rect width="98.724" height="22" x="0" y="778" class="st5"/><text x="13" y="792.6" class="st6">Sample app<tspan class="st8"> </tspan><tspan class="st8">B</tspan></text></g><g id="group237-348" transform="translate(10.2439,-30.345)"><title>Sheet.237</title><g id="shape238-349"><title>圆角矩形.60</title><path d="M1.29 800 L75.39 800 A1.29227 1.29227 -180 0 0 76.68 798.71 L76.68 761.29 A1.29227 1.29227 -180 0 0 75.39 760 L1.29 760 A1.29227 1.29227 -180 0 0 0 761.29 L0 798.71 A1.29227 1.29227 -180 0 0 1.29 800 Z" class="st53"/></g><g id="shape239-351" transform="translate(31.808,-3.1286)"><title>Sheet.239</title><desc>Pod A</desc><rect width="46.73" height="30" x="0" y="770" class="st5"/><text x="4" y="788.6" class="st6">Pod A</text></g><g id="group240-354" transform="translate(10.7561,-9.65499)"><title>Icon-web-50</title><g id="shape241-355"><title>Sheet.241</title><path d="M0.53 786.87 L18.51 786.87 L18.51 799.26 a0.602969 0.744527 0 0 1 -0.602969 0.744527 L1.13 800 a0.602969 0.744527 0 0 1 -0.602969 -0.744527 L0.53 786.87 Z" class="st54"/></g><g id="shape242-358" transform="translate(0,-13.1272)"><title>Sheet.242</title><path d="M1.13 795.27 L17.91 795.27 a0.602969 0.744527 0 0 1 0.602969 0.744527 L18.51 800 L0.53 800 L0.53 796 a0.602969 0.744527 0 0 1 0.602969 -0.731465 Z" class="st55"/></g><g id="shape243-360" transform="translate(2.95137,-14.5379)"><title>Sheet.243</title><path d="M0 799.63 a0.296202 0.365741 -180 0 0 0.296195 0.365733 L12.85 800 a0.296202 0.365741 -180 0 0 0.296195 -0.365733 L13.15 798.46 a0.296202 0.365741 -180 0 0 -0.296195 -0.365733 L0.3 798.09 a0.296202 0.365741 -180 0 0 -0.296195 0.365733 L0 799.63 Z" class="st56"/></g><g id="shape244-362" transform="translate(2.32725,-5.01576)"><title>Sheet.244</title><path d="M4.74 796.08 L3.79 800 L3.03 800 L2.44 797.39 A1.16362 1.43681 0 0 1 2.44 797.03 A1.05784 1.30619 0 0 1 2.44 797.37 L1.69 800 L0.94 800 L0 796.08 L0.75 796.08 L1.33 798.94 A1.51271 1.86785 0 0 1 1.33 799.28 A1.39635 1.72417 0 0 1 1.33 798.94 L2.09 796.08 L2.78 796.08 L3.36 798.96 A1.68197 2.07684 0 0 1 3.36 799.29 A1.59734 1.97234 0 0 1 3.36 798.96 L4.02 796.08 L4.74 796.08 Z" class="st13"/></g><g id="shape245-364" transform="translate(7.19331,-5.01576)"><title>Sheet.245</title><path d="M4.74 796.08 L3.79 800 L3.03 800 L2.44 797.39 A1.16362 1.43681 0 0 1 2.44 797.03 A1.957 2.41645 0 0 1 2.33 797.39 L1.69 800 L0.95 800 L0 796.08 L0.75 796.08 L1.34 798.94 A1.65023 2.03765 0 0 1 1.34 799.28 C1.34 799.18 1.34 799.06 1.4 798.94 L2.11 796.08 L2.78 796.08 L3.36 798.96 A1.68197 2.07684 0 0 1 3.36 799.29 A1.59734 1.97234 0 0 1 3.36 798.96 L4.05 796.08 L4.74 796.08 Z" class="st13"/></g><g id="shape246-366" transform="translate(12.0594,-5.01576)"><title>Sheet.246</title><path d="M4.75 796.08 L3.81 800 L3.05 800 L2.44 797.39 A2.04163 2.52094 0 0 1 2.44 797.03 A1.05784 1.30619 0 0 1 2.39 797.37 L1.69 800 L0.95 800 L0 796.08 L0.76 796.08 L1.34 798.94 A1.51271 1.86785 0 0 1 1.34 799.28 A1.34346 1.65886 0 0 1 1.34 798.94 L2.11 796.08 L2.75 796.08 L3.32 798.96 A1.68197 2.07684 0 0 1 3.32 799.29 A1.75601 2.16827 0 0 1 3.32 798.96 L4.05 796.08 L4.75 796.08 Z" class="st13"/></g></g></g><g id="group247-368" transform="translate(93.3659,-30.345)"><title>Sheet.247</title><g id="shape248-369"><title>圆角矩形.60</title><path d="M1.29 800 L75.39 800 A1.29227 1.29227 -180 0 0 76.68 798.71 L76.68 761.29 A1.29227 1.29227 -180 0 0 75.39 760 L1.29 760 A1.29227 1.29227 -180 0 0 0 761.29 L0 798.71 A1.29227 1.29227 -180 0 0 1.29 800 Z" class="st53"/></g><g id="shape249-371" transform="translate(31.808,-3.1286)"><title>Sheet.249</title><desc>Pod B</desc><rect width="39.826" height="30" x="0" y="770" class="st5"/><text x="4" y="788.6" class="st6">Pod <tspan class="st8">B</tspan></text></g><g id="group250-375" transform="translate(10.6341,-9.65499)"><title>Icon-web-50</title><g id="shape251-376"><title>Sheet.251</title><path d="M0.53 786.87 L18.63 786.87 L18.63 799.26 a0.606941 0.744527 0 0 1 -0.606941 0.744527 L1.14 800 a0.606941 0.744527 0 0 1 -0.606941 -0.744527 L0.53 786.87 Z" class="st54"/></g><g id="shape252-379" transform="translate(0,-13.1272)"><title>Sheet.252</title><path d="M1.14 795.27 L18.03 795.27 a0.606941 0.744527 0 0 1 0.606941 0.744527 L18.63 800 L0.53 800 L0.53 796 a0.606941 0.744527 0 0 1 0.606941 -0.731465 Z" class="st55"/></g><g id="shape253-381" transform="translate(2.97082,-14.5379)"><title>Sheet.253</title><path d="M0 799.63 a0.298153 0.365741 -180 0 0 0.298146 0.365733 L12.94 800 a0.298153 0.365741 -180 0 0 0.298146 -0.365733 L13.24 798.46 a0.298153 0.365741 -180 0 0 -0.298146 -0.365733 L0.3 798.09 a0.298153 0.365741 -180 0 0 -0.298146 0.365733 L0 799.63 Z" class="st56"/></g><g id="shape254-383" transform="translate(2.34258,-5.01576)"><title>Sheet.254</title><path d="M4.77 796.08 L3.81 800 L3.05 800 L2.46 797.39 A1.17129 1.43681 0 0 1 2.46 797.03 A1.06481 1.30619 0 0 1 2.46 797.37 L1.7 800 L0.95 800 L0 796.08 L0.76 796.08 L1.34 798.94 A1.52268 1.86785 0 0 1 1.34 799.28 A1.40555 1.72417 0 0 1 1.34 798.94 L2.11 796.08 L2.8 796.08 L3.39 798.96 A1.69305 2.07684 0 0 1 3.39 799.29 A1.60786 1.97234 0 0 1 3.39 798.96 L4.05 796.08 L4.77 796.08 Z" class="st13"/></g><g id="shape255-385" transform="translate(7.2407,-5.01576)"><title>Sheet.255</title><path d="M4.77 796.08 L3.81 800 L3.05 800 L2.46 797.39 A1.17129 1.43681 0 0 1 2.46 797.03 A1.9699 2.41645 0 0 1 2.34 797.39 L1.7 800 L0.96 800 L0 796.08 L0.76 796.08 L1.35 798.94 A1.6611 2.03765 0 0 1 1.35 799.28 C1.35 799.18 1.35 799.06 1.41 798.94 L2.12 796.08 L2.8 796.08 L3.39 798.96 A1.69305 2.07684 0 0 1 3.39 799.29 A1.60786 1.97234 0 0 1 3.39 798.96 L4.08 796.08 L4.77 796.08 Z" class="st13"/></g><g id="shape256-387" transform="translate(12.1388,-5.01576)"><title>Sheet.256</title><path d="M4.78 796.08 L3.83 800 L3.07 800 L2.46 797.39 A2.05508 2.52094 0 0 1 2.46 797.03 A1.06481 1.30619 0 0 1 2.41 797.37 L1.7 800 L0.96 800 L0 796.08 L0.77 796.08 L1.35 798.94 A1.52268 1.86785 0 0 1 1.35 799.28 A1.35231 1.65886 0 0 1 1.35 798.94 L2.12 796.08 L2.77 796.08 L3.34 798.96 A1.69305 2.07684 0 0 1 3.34 799.29 A1.76758 2.16827 0 0 1 3.34 798.96 L4.08 796.08 L4.78 796.08 Z" class="st13"/></g></g></g></g><g id="shape257-389" transform="translate(115,-340)"><title>圆角矩形.257</title><path d="M6.74 800 L393.26 800 A6.74087 6.74087 -180 0 0 400 793.26 L400 686.74 A6.74087 6.74087 -180 0 0 393.26 680 L6.74 680 A6.74087 6.74087 -180 0 0 0 686.74 L0 793.26 A6.74087 6.74087 -180 0 0 6.74 800 Z" class="st58"/></g><g id="shape260-391" transform="translate(178.585,-445)"><title>Sheet.260</title><path d="M124.31 680 L124.31 697.2 L0 697.2 L0 792.96" class="st59"/></g><g id="shape261-397" transform="translate(260,-445)"><title>Sheet.261</title><path d="M42.89 680 L42.89 697.2 L0 697.2 L0 792.96" class="st59"/></g><g id="shape263-402" transform="translate(285,-445)"><title>Sheet.263</title><path d="M78.59 793.32 L78.59 792.96 L78.59 697.31 L0 697.31" class="st61"/></g><g id="shape274-408" transform="translate(252.845,-270)"><title>圆角矩形.274</title><path d="M2.09 800 L122.21 800 A2.09488 2.09488 -180 0 0 124.31 797.91 L124.31 742.09 A2.09488 2.09488 -180 0 0 122.21 740 L2.09 740 A2.09488 2.09488 -180 0 0 -0 742.09 L0 797.91 A2.09488 2.09488 -180 0 0 2.09 800 Z" class="st52"/></g><g id="shape265-410" transform="translate(257.063,-270)"><title>Sheet.265</title><desc>Istio</desc><rect width="117.565" height="30" x="0" y="770" class="st5"/><text x="49.5" y="788" class="st63">Istio</text></g><g id="group267-413" transform="translate(305.095,-301.375)"><title>Sheet.267</title><g id="shape268-414" transform="translate(5.48869,-5.28042)"><title>Sheet.268</title><ellipse cx="3.442" cy="796.655" class="st64" rx="3.442" ry="3.345"/><ellipse cx="3.442" cy="796.655" class="st65" rx="3.442" ry="3.345"/></g><g id="shape269-419" transform="translate(0.0138056,0)"><title>Sheet.269</title><path d="M6.1 795.09 L7.48 796.43 L7.48 792.73 L3.67 792.73 L5.05 794.07 L1.38 797.64 L0 796.29 L0 800 L3.82 800 L2.43 798.65 L6.1 795.09 Z" class="st66"/></g><g id="shape270-424" transform="translate(10.2674,-0.0134167)"><title>Sheet.270</title><path d="M7.48 800 L7.48 796.29 L6.1 797.64 L2.43 794.07 L3.81 792.73 L0 792.73 L0 796.44 L1.38 795.09 L5.05 798.65 L3.67 800 L7.48 800 Z" class="st67"/></g><g id="shape271-429" transform="translate(10.2536,-9.97817)"><title>Sheet.271</title><path d="M6.1 795.09 L7.48 796.43 L7.48 792.73 L3.67 792.73 L5.05 794.07 L1.38 797.64 L0 796.29 L0 800 L3.82 800 L2.43 798.65 L6.1 795.09 Z" class="st68"/></g><g id="shape272-434" transform="translate(0,-9.96475)"><title>Sheet.272</title><path d="M7.48 800 L7.48 796.29 L6.1 797.64 L2.43 794.07 L3.81 792.73 L0 792.73 L0 796.44 L1.38 795.09 L5.05 798.65 L3.67 800 L7.48 800 Z" class="st69"/></g></g><g id="shape259-439" transform="translate(145,-465)"><title>Sheet.259</title><desc>lstio Service Mesh</desc><rect width="117.565" height="30" x="0" y="770" class="st5"/><text x="4" y="788.6" class="st6">lstio Service Mesh</text></g><g id="shape264-442" transform="translate(364,-445)"><title>Sheet.264</title><path d="M81 793.32 L81 792.96 L81 697.31 L0 697.31" class="st61"/></g><g id="group286-447" transform="translate(230.744,-395)"><title>Icon-web-50</title><g id="shape287-448"><title>Sheet.287</title><path d="M0.53 786.87 L18.51 786.87 L18.51 799.26 a0.602969 0.744527 0 0 1 -0.602969 0.744527 L1.13 800 a0.602969 0.744527 0 0 1 -0.602969 -0.744527 L0.53 786.87 Z" class="st54"/></g><g id="shape288-451" transform="translate(0,-13.1272)"><title>Sheet.288</title><path d="M1.13 795.27 L17.91 795.27 a0.602969 0.744527 0 0 1 0.602969 0.744527 L18.51 800 L0.53 800 L0.53 796 a0.602969 0.744527 0 0 1 0.602969 -0.731465 Z" class="st55"/></g><g id="shape289-453" transform="translate(2.95137,-14.5379)"><title>Sheet.289</title><path d="M0 799.63 a0.296202 0.365741 -180 0 0 0.296195 0.365733 L12.85 800 a0.296202 0.365741 -180 0 0 0.296195 -0.365733 L13.15 798.46 a0.296202 0.365741 -180 0 0 -0.296195 -0.365733 L0.3 798.09 a0.296202 0.365741 -180 0 0 -0.296195 0.365733 L0 799.63 Z" class="st56"/></g><g id="shape290-455" transform="translate(2.32725,-5.01576)"><title>Sheet.290</title><path d="M4.74 796.08 L3.79 800 L3.03 800 L2.44 797.39 A1.16362 1.43681 0 0 1 2.44 797.03 A1.05784 1.30619 0 0 1 2.44 797.37 L1.69 800 L0.94 800 L0 796.08 L0.75 796.08 L1.33 798.94 A1.51271 1.86785 0 0 1 1.33 799.28 A1.39635 1.72417 0 0 1 1.33 798.94 L2.09 796.08 L2.78 796.08 L3.36 798.96 A1.68197 2.07684 0 0 1 3.36 799.29 A1.59734 1.97234 0 0 1 3.36 798.96 L4.02 796.08 L4.74 796.08 Z" class="st13"/></g><g id="shape291-457" transform="translate(7.19331,-5.01576)"><title>Sheet.291</title><path d="M4.74 796.08 L3.79 800 L3.03 800 L2.44 797.39 A1.16362 1.43681 0 0 1 2.44 797.03 A1.957 2.41645 0 0 1 2.33 797.39 L1.69 800 L0.95 800 L0 796.08 L0.75 796.08 L1.34 798.94 A1.65023 2.03765 0 0 1 1.34 799.28 C1.34 799.18 1.34 799.06 1.4 798.94 L2.11 796.08 L2.78 796.08 L3.36 798.96 A1.68197 2.07684 0 0 1 3.36 799.29 A1.59734 1.97234 0 0 1 3.36 798.96 L4.05 796.08 L4.74 796.08 Z" class="st13"/></g><g id="shape292-459" transform="translate(12.0594,-5.01576)"><title>Sheet.292</title><path d="M4.75 796.08 L3.81 800 L3.05 800 L2.44 797.39 A2.04163 2.52094 0 0 1 2.44 797.03 A1.05784 1.30619 0 0 1 2.39 797.37 L1.69 800 L0.95 800 L0 796.08 L0.76 796.08 L1.34 798.94 A1.51271 1.86785 0 0 1 1.34 799.28 A1.34346 1.65886 0 0 1 1.34 798.94 L2.11 796.08 L2.75 796.08 L3.32 798.96 A1.68197 2.07684 0 0 1 3.32 799.29 A1.75601 2.16827 0 0 1 3.32 798.96 L4.05 796.08 L4.75 796.08 Z" class="st13"/></g></g><g id="shape296-461" transform="translate(394,-270)"><title>圆角矩形.296</title><path d="M2.09 800 L122.21 800 A2.09488 2.09488 -180 0 0 124.31 797.91 L124.31 742.09 A2.09488 2.09488 -180 0 0 122.21 740 L2.09 740 A2.09488 2.09488 -180 0 0 -0 742.09 L0 797.91 A2.09488 2.09488 -180 0 0 2.09 800 Z" class="st52"/></g><g id="group150-463" transform="translate(446.968,-297)"><title>AKS 机密菜单</title><g id="group151-464"><title>Sheet.151</title><g id="group152-465" transform="translate(-1.00919E-13,-3.58844)"><title>Sheet.152</title><g id="shape153-466"><title>Sheet.153</title><path d="M14.44 781.59 L0.61 781.59 a0.613388 0.613388 -180 0 0 -0.613388 0.613388 L0 799.39 a0.613388 0.613388 -180 0 0 0.613388 0.613388 L10.52 800 L10.52 797.5 A1.08895 1.08895 0 0 1 10.52 797.32 A1.20318 1.20318 0 0 1 10.98 796.5 L5.98 796.5 a0.382436 0.382436 0 0 1 -0.381194 -0.381194 L5.6 795.14 a0.381194 0.381194 0 0 1 0.381194 -0.381194 L11.67 794.76 A4.69353 4.69353 0 0 1 11.91 793.3 L8.18 793.3 a0.330286 0.330286 0 0 1 -0.329044 -0.330286 L7.85 791.89 a0.329044 0.329044 0 0 1 0.329044 -0.329044 L12.72 791.57 a0.305452 0.305452 0 0 1 0.124168 0.053392 C12.88 791.59 12.9 791.55 12.93 791.52 C13 791.44 13.08 791.36 13.16 791.28 A4.32724 4.32724 0 0 1 15.04 790.28 L15.04 782.2 a0.620838 0.620838 -180 0 0 -0.607179 -0.613388 Z" class="st70"/></g><g id="shape154-470" transform="translate(7.85484,-6.69511)"><title>Sheet.154</title><path d="M0.33 798.26 a0.329044 0.329044 -180 0 0 -0.329044 0.329044 L0 799.67 a0.330286 0.330286 -180 0 0 0.329044 0.330286 L4.05 800 A4.70471 4.70471 0 0 1 5.01 798.31 a0.305452 0.305452 -180 0 0 -0.124168 -0.053392 L0.33 798.26 Z" class="st15"/></g><g id="shape155-472" transform="translate(7.85484,-6.69511)"><title>Sheet.155</title><path d="M0.33 798.26 a0.329044 0.329044 -180 0 0 -0.329044 0.329044 L0 799.67 a0.330286 0.330286 -180 0 0 0.329044 0.330286 L4.05 800 A4.70471 4.70471 0 0 1 5.01 798.31 a0.305452 0.305452 -180 0 0 -0.124168 -0.053392 L0.33 798.26 Z" class="st30"/></g><g id="shape156-474" transform="translate(5.60244,-3.50152)"><title>Sheet.156</title><path d="M0 798.64 L0 799.62 a0.382436 0.382436 -180 0 0 0.381194 0.381194 L5.38 800 A1.20442 1.20442 0 0 1 6.06 799.72 L6.06 798.3 C6.06 798.28 6.06 798.27 6.06 798.26 L0.38 798.26 a0.381194 0.381194 -180 0 0 -0.381194 0.381194 Z" class="st15"/></g><g id="shape157-476" transform="translate(5.60244,-3.50152)"><title>Sheet.157</title><path d="M0 798.64 L0 799.62 a0.382436 0.382436 -180 0 0 0.381194 0.381194 L5.38 800 A1.20442 1.20442 0 0 1 6.06 799.72 L6.06 798.3 C6.06 798.28 6.06 798.27 6.06 798.26 L0.38 798.26 a0.381194 0.381194 -180 0 0 -0.381194 0.381194 Z" class="st30"/></g></g><g id="shape158-478" transform="translate(1.9097,-16.6645)"><title>Sheet.158</title><path d="M0 799.61 a0.392378 0.392378 -180 0 0 0.392369 0.392369 L1.77 800 a0.392378 0.392378 -180 0 0 0.392369 -0.392369 L2.17 798.65 a0.392378 0.392378 -180 0 0 -0.392369 -0.392369 L0.39 798.26 a0.392378 0.392378 -180 0 0 -0.392369 0.392369 L0 799.61 Z" class="st71"/></g><g id="shape159-480" transform="translate(5.54905,-16.6645)"><title>Sheet.159</title><path d="M0 799.62 a0.379961 0.379961 -180 0 0 0.379953 0.379953 L7.07 800 a0.379961 0.379961 -180 0 0 0.379953 -0.379953 L7.45 798.64 a0.379961 0.379961 -180 0 0 -0.379953 -0.379953 L0.38 798.26 a0.379961 0.379961 -180 0 0 -0.379953 0.379953 L0 799.62 Z" class="st30"/></g><g id="shape160-482" transform="translate(4.17824,-13.4709)"><title>Sheet.160</title><path d="M0 799.66 a0.340227 0.340227 -180 0 0 0.340219 0.340219 L1.83 800 a0.340227 0.340227 -180 0 0 0.340219 -0.340219 L2.17 798.6 a0.340227 0.340227 -180 0 0 -0.340219 -0.340219 L0.34 798.26 a0.340227 0.340227 -180 0 0 -0.340219 0.340219 L0 799.66 Z" class="st71"/></g><g id="shape161-484" transform="translate(7.8387,-13.4709)"><title>Sheet.161</title><path d="M0 799.67 a0.329052 0.329052 -180 0 0 0.329044 0.329044 L4.87 800 a0.329052 0.329052 -180 0 0 0.329044 -0.329044 L5.2 798.59 a0.329052 0.329052 -180 0 0 -0.329044 -0.329044 L0.33 798.26 a0.329052 0.329052 -180 0 0 -0.329044 0.329044 L0 799.67 Z" class="st30"/></g><g id="shape162-486" transform="translate(4.17079,-10.2761)"><title>Sheet.162</title><path d="M0 799.66 a0.340227 0.340227 -180 0 0 0.340219 0.340219 L1.84 800 a0.340227 0.340227 -180 0 0 0.340219 -0.340219 L2.18 798.6 a0.340227 0.340227 -180 0 0 -0.340219 -0.340219 L0.34 798.26 a0.340227 0.340227 -180 0 0 -0.340219 0.340219 L0 799.66 Z" class="st71"/></g><g id="shape163-488" transform="translate(1.94695,-7.08251)"><title>Sheet.163</title><path d="M0 799.61 a0.392378 0.392378 -180 0 0 0.392369 0.392369 L1.77 800 a0.392378 0.392378 -180 0 0 0.392369 -0.392369 L2.17 798.65 a0.392378 0.392378 -180 0 0 -0.392369 -0.392369 L0.39 798.26 a0.392378 0.392378 -180 0 0 -0.392369 0.392369 L0 799.61 Z" class="st71"/></g><g id="shape164-490" transform="translate(11.2328,0)"><title>Sheet.164</title><path d="M9.21 793.37 L8.6 793.37 L8.6 791.21 A3.99323 3.99323 -180 0 0 7.53 788.44 A3.61824 3.61824 -180 0 0 2.42 788.24 C2.35 788.3 2.28 788.37 2.22 788.44 A3.98702 3.98702 -180 0 0 1.15 791.21 L1.15 793.37 L0.54 793.37 a0.49667 0.49667 -180 0 0 -0.53392 0.438311 a0.438311 0.438311 -180 0 0 -1.60982E-15 0.0807089 L0 799.51 a0.48922 0.48922 -180 0 0 0.490462 0.48922 L9.21 800 a0.49667 0.49667 -180 0 0 0.506603 -0.473078 L9.72 793.89 a0.49667 0.49667 -180 0 0 -0.456936 -0.51902 L9.21 793.37 ZM6.84 793.37 L2.87 793.37 L2.87 791.17 A2.18535 2.18535 0 0 1 3.49 789.65 A1.81781 1.81781 0 0 1 6.07 789.5 A1.78677 1.78677 0 0 1 6.22 789.65 A2.40637 2.40637 0 0 1 6.47 789.95 A2.14313 2.14313 0 0 1 6.85 791.16 L6.84 793.37 Z" class="st25"/></g><g id="shape165-492" transform="translate(11.2384,-0.153968)"><title>Sheet.165</title><path d="M0.5 793.53 L9.2 793.53 a0.49667 0.49667 0 0 1 0.321594 0.124168 L0.18 800 a0.502878 0.502878 0 0 1 -0.182526 -0.372503 L0 794.04 a0.49667 0.49667 0 0 1 0.455695 -0.51902 L0.5 793.53 Z" class="st72"/></g><g id="shape166-494" transform="translate(11.4247,-0.152726)"><title>Sheet.166</title><path d="M9.02 793.53 L0.32 793.53 a0.479287 0.479287 -180 0 0 -0.321594 0.124168 L9.34 800 a0.45942 0.45942 -180 0 0 0.182526 -0.372503 L9.52 794.04 a0.49667 0.49667 -180 0 0 -0.456936 -0.51902 L9.02 793.53 Z" class="st73"/></g></g></g><g id="shape266-496" transform="translate(396.155,-270)"><title>Sheet.266</title><desc>ALB-istio-client-certificate</desc><rect width="124.309" height="30" x="0" y="770" class="st5"/><text x="5.17" y="788" class="st63">ALB-istio-client-certificate</text></g><g id="shape297-499" transform="translate(237,-302.5)"><title>Sheet.297</title><path d="M0 800 L8.83 800" class="st37"/></g><g id="shape298-504" transform="translate(378,-302.5)"><title>Sheet.298</title><path d="M0 800 L8.83 800" class="st37"/></g><g id="group299-509" transform="translate(288.5,-532.348)"><title>Sheet.299</title><g id="shape300-510" transform="translate(0,-6.19325)"><title>Sheet.300</title><path d="M28.52 778.89 L0.98 778.89 C0.44 778.89 0 779.33 0 779.88 L0 799.01 C0 799.56 0.44 800 0.98 800 L28.52 800 C29.06 800 29.5 799.56 29.5 799.01 L29.5 779.88 C29.5 779.33 29.06 778.89 28.52 778.89 Z" class="st74"/></g><g id="shape301-514" transform="translate(1.72091,-8.06417)"><title>Sheet.301</title><path d="M25.57 782.62 L0.49 782.62 C0.22 782.62 0 782.84 0 783.11 L0 799.5 C0 799.78 0.22 800 0.49 800 L25.57 800 C25.84 800 26.06 799.78 26.06 799.5 L26.06 783.11 C26.06 782.84 25.84 782.62 25.57 782.62 Z" class="st13"/></g><g id="shape302-516" transform="translate(12.898,-12.6173)"><title>Sheet.302</title><path d="M11.59 799.52 C11.59 799.64 11.54 799.76 11.45 799.85 C11.37 799.94 11.25 800 11.13 800 L0.48 800 C0.35 800 0.23 799.95 0.14 799.86 C0.05 799.77 0 799.65 0 799.52 C0 799.39 0.05 799.27 0.14 799.18 C0.23 799.09 0.35 799.04 0.48 799.04 L11.13 799.04 C11.19 799.04 11.25 799.05 11.31 799.08 C11.36 799.1 11.42 799.14 11.46 799.18 C11.5 799.23 11.53 799.28 11.56 799.34 C11.58 799.4 11.59 799.46 11.59 799.52 Z" class="st75"/></g><g id="shape303-518" transform="translate(12.898,-15.5975)"><title>Sheet.303</title><path d="M11.59 799.52 C11.59 799.64 11.54 799.76 11.45 799.85 C11.37 799.94 11.25 800 11.13 800 L0.48 800 C0.35 800 0.23 799.95 0.14 799.86 C0.05 799.77 0 799.65 0 799.52 C0 799.39 0.05 799.27 0.14 799.18 C0.23 799.09 0.35 799.04 0.48 799.04 L11.13 799.04 C11.19 799.04 11.25 799.05 11.31 799.08 C11.36 799.1 11.42 799.14 11.46 799.18 C11.5 799.23 11.53 799.28 11.56 799.34 C11.58 799.4 11.59 799.46 11.59 799.52 Z" class="st75"/></g><g id="shape304-520" transform="translate(5.7033,-19.9188)"><title>Sheet.304</title><path d="M18.78 799.52 C18.78 799.58 18.77 799.64 18.75 799.7 C18.73 799.76 18.7 799.81 18.65 799.86 C18.61 799.9 18.56 799.94 18.5 799.96 C18.45 799.99 18.38 800 18.32 800 L0.48 800 C0.41 800 0.35 799.99 0.29 799.96 C0.24 799.94 0.18 799.9 0.14 799.86 C0.1 799.81 0.06 799.76 0.04 799.7 C0.01 799.65 0 799.58 0 799.52 C0 799.46 0.01 799.39 0.04 799.34 C0.06 799.28 0.1 799.22 0.14 799.18 C0.18 799.14 0.24 799.1 0.29 799.08 C0.35 799.05 0.41 799.04 0.48 799.04 L18.32 799.04 C18.38 799.04 18.45 799.05 18.5 799.08 C18.56 799.1 18.61 799.14 18.65 799.18 C18.7 799.23 18.73 799.28 18.75 799.34 C18.77 799.4 18.78 799.46 18.78 799.52 Z" class="st75"/></g><g id="shape305-522" transform="translate(2.53195,0)"><title>Sheet.305</title><path d="M5.88 792.45 C5.12 793.14 4.13 793.52 3.11 793.52 C2.09 793.52 1.11 793.14 0.35 792.45 L0.01 799.39 C0 799.5 0.03 799.61 0.08 799.71 C0.14 799.81 0.23 799.88 0.33 799.93 C0.43 799.97 0.55 799.98 0.66 799.96 C0.77 799.94 0.87 799.88 0.94 799.8 L3.07 797.61 L5.22 799.82 C5.3 799.9 5.39 799.95 5.5 799.98 C5.61 800 5.72 799.99 5.82 799.95 C5.93 799.9 6.01 799.83 6.07 799.74 C6.13 799.64 6.16 799.53 6.15 799.42 L5.88 792.45 Z" class="st76"/></g><g id="shape306-524" transform="translate(0.77023,-6.11046)"><title>Sheet.306</title><path d="M4.93 800 C7.66 800 9.87 797.76 9.87 795 C9.87 792.24 7.66 790 4.93 790 C2.21 790 0 792.24 0 795 C0 797.76 2.21 800 4.93 800 Z" class="st77"/></g><g id="shape307-526" transform="translate(1.95018,-7.31911)"><title>Sheet.307</title><path d="M3.75 800 C5.83 800 7.51 798.3 7.51 796.21 C7.51 794.11 5.83 792.42 3.75 792.42 C1.68 792.42 0 794.11 0 796.21 C0 798.3 1.68 800 3.75 800 Z" class="st78"/></g></g><g id="group308-528" transform="translate(587.32,-298)"><title>Kubernetes logo with no border</title><g id="group309-529"><title>g1350</title><g id="shape310-530"><title>path3055</title><path d="M15.74 769.18 A2.11173 2.09445 -0 0 0 14.93 769.39 L3.89 774.66 A2.11173 2.09445 -0 0 0 2.75 776.08 L0.02 787.94 A2.11173 2.09445 -0 0 0 0.31 789.54 A2.11173 2.09445 -0 0 0 0.43 789.71 L8.07 799.21 A2.11173 2.09445 -0 0 0 9.72 800 L21.98 800 A2.11173 2.09445 -0 0 0 23.63 799.21 L31.27 789.71 A2.11173 2.09445 -0 0 0 31.68 787.93 L28.95 776.08 A2.11173 2.09445 -0 0 0 27.81 774.66 L16.76 769.39 A2.11173 2.09445 -0 0 0 15.74 769.18 Z" class="st79"/></g><g id="shape311-533" transform="translate(4.14114,-3.93786)"><title>path3059</title><path d="M11.71 777.15 C11.34 777.15 11.05 777.48 11.05 777.89 C11.05 777.89 11.05 777.9 11.05 777.91 C11.05 777.96 11.05 778.03 11.05 778.07 C11.06 778.31 11.11 778.49 11.14 778.7 C11.19 779.16 11.24 779.55 11.21 779.9 C11.18 780.04 11.08 780.16 11 780.24 L10.98 780.52 C10.58 780.56 10.19 780.62 9.79 780.71 C8.07 781.1 6.59 781.98 5.47 783.17 C5.39 783.12 5.27 783.03 5.23 783.01 C5.11 783.02 4.99 783.06 4.84 782.97 C4.54 782.77 4.27 782.49 3.94 782.16 C3.8 782 3.69 781.85 3.51 781.7 C3.47 781.67 3.41 781.62 3.36 781.58 C3.22 781.47 3.06 781.41 2.9 781.41 C2.7 781.4 2.5 781.48 2.38 781.64 C2.15 781.93 2.22 782.36 2.54 782.62 C2.54 782.62 2.54 782.62 2.55 782.62 C2.59 782.66 2.64 782.7 2.68 782.73 C2.87 782.87 3.05 782.94 3.23 783.05 C3.63 783.3 3.96 783.5 4.22 783.75 C4.32 783.85 4.34 784.04 4.35 784.13 L4.56 784.32 C3.43 786.02 2.9 788.13 3.21 790.28 L2.93 790.36 C2.86 790.45 2.76 790.6 2.65 790.65 C2.31 790.75 1.93 790.79 1.47 790.84 C1.25 790.86 1.06 790.85 0.83 790.89 C0.78 790.9 0.71 790.92 0.66 790.93 C0.65 790.93 0.65 790.93 0.65 790.93 C0.65 790.93 0.64 790.94 0.64 790.94 C0.25 791.03 0 791.39 0.08 791.74 C0.16 792.09 0.54 792.31 0.93 792.23 C0.94 792.22 0.94 792.22 0.94 792.22 C0.95 792.22 0.95 792.22 0.96 792.22 C1.01 792.21 1.08 792.19 1.13 792.18 C1.35 792.12 1.52 792.03 1.72 791.95 C2.16 791.8 2.52 791.67 2.87 791.61 C3.02 791.6 3.18 791.71 3.25 791.75 L3.54 791.7 C4.2 793.76 5.59 795.42 7.35 796.46 L7.23 796.75 C7.28 796.86 7.32 797.01 7.29 797.12 C7.16 797.45 6.94 797.81 6.69 798.2 C6.57 798.38 6.45 798.52 6.34 798.72 C6.31 798.77 6.28 798.85 6.25 798.9 C6.08 799.27 6.21 799.68 6.54 799.84 C6.86 800 7.27 799.83 7.45 799.47 C7.45 799.47 7.45 799.47 7.45 799.47 C7.45 799.47 7.45 799.47 7.45 799.47 C7.47 799.41 7.51 799.35 7.53 799.3 C7.62 799.08 7.66 798.9 7.72 798.69 C7.9 798.25 7.99 797.79 8.23 797.5 C8.3 797.43 8.41 797.4 8.52 797.37 L8.67 797.09 C10.2 797.68 11.92 797.84 13.63 797.45 C14.02 797.36 14.4 797.25 14.77 797.11 C14.81 797.19 14.89 797.33 14.91 797.36 C15.02 797.4 15.15 797.42 15.25 797.57 C15.43 797.88 15.55 798.24 15.7 798.68 C15.77 798.89 15.8 799.07 15.89 799.29 C15.91 799.34 15.95 799.4 15.97 799.46 C16.15 799.82 16.56 799.99 16.89 799.83 C17.21 799.67 17.34 799.25 17.17 798.89 C17.14 798.84 17.11 798.76 17.08 798.71 C16.97 798.51 16.85 798.37 16.73 798.19 C16.48 797.8 16.27 797.47 16.14 797.14 C16.09 796.97 16.15 796.86 16.19 796.75 C16.17 796.72 16.11 796.56 16.08 796.48 C17.91 795.4 19.26 793.68 19.89 791.69 C19.98 791.7 20.13 791.73 20.18 791.74 C20.27 791.67 20.37 791.59 20.55 791.6 C20.9 791.65 21.26 791.78 21.7 791.94 C21.9 792.02 22.07 792.11 22.29 792.17 C22.34 792.18 22.41 792.19 22.46 792.2 C22.47 792.2 22.47 792.21 22.47 792.21 C22.48 792.21 22.48 792.21 22.48 792.21 C22.88 792.29 23.26 792.08 23.34 791.73 C23.42 791.37 23.17 791.02 22.78 790.92 C22.72 790.91 22.64 790.89 22.59 790.88 C22.36 790.83 22.17 790.84 21.95 790.83 C21.49 790.78 21.11 790.74 20.77 790.63 C20.63 790.58 20.53 790.41 20.48 790.34 L20.22 790.27 C20.35 789.26 20.32 788.22 20.08 787.18 C19.83 786.13 19.41 785.17 18.84 784.32 C18.91 784.26 19.04 784.14 19.07 784.11 C19.08 783.99 19.07 783.86 19.2 783.73 C19.46 783.49 19.78 783.29 20.18 783.04 C20.37 782.93 20.54 782.86 20.73 782.72 C20.77 782.69 20.83 782.64 20.87 782.6 C21.19 782.35 21.26 781.91 21.04 781.63 C20.81 781.34 20.37 781.32 20.05 781.57 C20.01 781.61 19.94 781.65 19.9 781.69 C19.73 781.84 19.62 781.99 19.47 782.15 C19.14 782.48 18.87 782.76 18.58 782.96 C18.45 783.03 18.26 783 18.18 783 L17.92 783.18 C16.49 781.68 14.54 780.71 12.44 780.53 C12.43 780.44 12.42 780.28 12.42 780.23 C12.34 780.15 12.23 780.08 12.21 779.9 C12.18 779.55 12.22 779.16 12.28 778.7 C12.31 778.49 12.36 778.31 12.37 778.07 C12.37 778.02 12.37 777.94 12.37 777.89 C12.37 777.48 12.07 777.15 11.71 777.15 L11.71 777.15 ZM10.88 782.28 L10.68 785.75 L10.67 785.75 C10.66 786.06 10.4 786.31 10.09 786.31 C9.96 786.31 9.84 786.27 9.75 786.2 L9.74 786.2 L6.9 784.19 C7.77 783.33 8.89 782.69 10.18 782.4 C10.41 782.35 10.65 782.31 10.88 782.28 L10.88 782.28 ZM12.54 782.28 C14.04 782.46 15.43 783.15 16.5 784.19 L13.67 786.19 L13.66 786.19 C13.41 786.37 13.06 786.32 12.86 786.08 C12.78 785.98 12.74 785.86 12.74 785.74 L12.73 785.74 L12.54 782.28 ZM5.87 785.48 L8.46 787.8 L8.46 787.82 C8.69 788.02 8.73 788.38 8.53 788.62 C8.45 788.72 8.34 788.79 8.23 788.82 L8.23 788.83 L4.9 789.79 C4.73 788.24 5.1 786.74 5.87 785.48 L5.87 785.48 ZM17.53 785.48 C17.92 786.11 18.21 786.81 18.38 787.56 C18.56 788.31 18.6 789.06 18.53 789.78 L15.18 788.82 L15.18 788.8 C14.88 788.72 14.7 788.42 14.77 788.11 C14.8 787.99 14.86 787.88 14.95 787.8 L14.95 787.79 L17.53 785.48 L17.53 785.48 ZM11.18 787.98 L12.24 787.98 L12.9 788.81 L12.66 789.84 L11.71 790.3 L10.75 789.84 L10.51 788.81 L11.18 787.98 ZM14.59 790.81 C14.63 790.81 14.68 790.81 14.72 790.82 L14.73 790.81 L18.17 791.4 C17.66 792.81 16.7 794.04 15.41 794.86 L14.08 791.63 L14.08 791.62 C13.96 791.34 14.08 791.01 14.36 790.87 C14.43 790.83 14.51 790.82 14.59 790.81 L14.59 790.81 ZM8.8 790.83 C9.07 790.83 9.3 791.01 9.36 791.28 C9.39 791.4 9.38 791.53 9.33 791.64 L9.34 791.65 L8.02 794.85 C6.78 794.05 5.8 792.86 5.27 791.41 L8.68 790.83 L8.69 790.84 C8.73 790.83 8.77 790.82 8.8 790.83 L8.8 790.83 ZM11.69 792.23 C11.78 792.22 11.87 792.24 11.96 792.28 C12.08 792.34 12.16 792.43 12.22 792.53 L12.23 792.53 L13.92 795.57 C13.7 795.64 13.47 795.71 13.24 795.76 C11.96 796.05 10.67 795.96 9.51 795.57 L11.19 792.53 L11.19 792.53 C11.3 792.34 11.49 792.23 11.69 792.23 L11.69 792.23 Z" class="st80"/></g></g></g><g id="group313-536" transform="translate(118.25,-468.25)"><title>Sheet.313</title><g id="shape314-537"><title>Sheet.314</title><ellipse cx="13.875" cy="786.125" class="st81" rx="13.875" ry="13.875"/></g><g id="shape315-539" transform="translate(7.36113,-9.56351)"><title>Sheet.315</title><path d="M4.44 794.65 L4.44 799.23 C4.44 799.23 4.44 799.24 4.43 799.24 L0.02 800 C0.02 800 0 799.99 0 799.98 C0 799.98 0 799.98 0 799.97 L4.41 790.13 C4.41 790.13 4.42 790.12 4.43 790.12 C4.44 790.12 4.44 790.13 4.44 790.14 L4.44 794.65 L4.44 794.65 Z" class="st82"/></g><g id="shape316-541" transform="translate(12.5484,-9.56092)"><title>Sheet.316</title><path d="M0 792.01 L0 799.24 C0 799.24 0.01 799.26 0.02 799.26 L6.62 800 C6.62 800 6.64 799.99 6.64 799.98 C6.64 799.98 6.64 799.98 6.64 799.98 L0.03 785.23 C0.03 785.23 0.02 785.22 0.01 785.22 C0.01 785.22 0 785.23 0 785.24 L0 792.01 L0 792.01 Z" class="st82"/></g><g id="shape317-543" transform="translate(7.3715,-6.69782)"><title>Sheet.317</title><path d="M11.75 797.81 L4.44 800 C4.44 800 4.43 800 4.43 800 L0.01 797.81 C0.01 797.81 0 797.8 0.01 797.78 C0.01 797.78 0.02 797.77 0.02 797.77 L11.74 797.77 C11.74 797.77 11.76 797.78 11.76 797.8 C11.76 797.8 11.75 797.81 11.75 797.81 Z" class="st82"/></g></g><g id="shape318-545" transform="translate(175,-255)"><title>Sheet.318</title><path d="M0 780 L0 800 L430 800 L430 782.04" class="st34"/></g><g id="shape295-550" transform="translate(112.845,-270)"><title>圆角矩形.295</title><path d="M2.09 800 L122.21 800 A2.09488 2.09488 -180 0 0 124.31 797.91 L124.31 742.09 A2.09488 2.09488 -180 0 0 122.21 740 L2.09 740 A2.09488 2.09488 -180 0 0 -0 742.09 L0 797.91 A2.09488 2.09488 -180 0 0 2.09 800 Z" class="st52"/></g><g id="shape147-552" transform="translate(122,-270)"><title>Sheet.147</title><desc>ALB Service Mesh Extension</desc><rect width="100" height="30" x="0" y="770" class="st5"/><text x="11.22" y="782" class="st63">ALB <tspan class="st8">Service Mesh </tspan><tspan x="28.95" class="st8" dy="1.2em">Extension</tspan></text></g><g id="group167-557" transform="translate(162.25,-298.773)"><title>Sheet.167</title><g id="group168-558"><title>Sheet.168</title><g id="shape169-559" transform="translate(0.0337742,0)"><title>Sheet.169</title><path d="M25.38 795.41 C25.14 796.45 23.85 797.47 21.51 798.27 C15.64 799.99 9.41 800 3.54 798.29 C1.38 797.53 0.21 796.55 0.03 795.56 C0 795.38 0.03 792.64 0.03 792.64 L25.42 792.41 C25.42 792.41 25.41 795.28 25.38 795.41 Z" class="st72"/></g><g id="shape170-561" transform="translate(-7.9402,-2.94399) rotate(-0.575)"><title>Sheet.170</title><ellipse cx="12.707" cy="795.606" class="st21" rx="12.707" ry="4.394"/></g></g><g id="group171-563" transform="translate(4.27917,-7.50533)"><title>Sheet.171</title><g id="shape172-564" transform="translate(15.3424,-0.955814)"><title>Sheet.172</title><path d="M0 787.41 L1.26 787.41 C1.45 787.41 1.6 787.56 1.6 787.75 L1.6 791.24 C1.6 791.43 1.45 791.58 1.26 791.58 L0 791.58 L0 787.41 ZM0 793.48 L0 800 L1.26 800 C1.45 800 1.6 799.85 1.6 799.66 L1.6 793.82 C1.6 793.63 1.45 793.48 1.26 793.48 L0 793.48 Z" class="st18"/></g><g id="shape173-566" transform="translate(1.62503,0)"><title>Sheet.173</title><path d="M0 799.31 a0.687581 0.687581 -180 0 0 0.687565 0.687565 L13.03 800 a0.687581 0.687581 -180 0 0 0.687565 -0.687565 L13.71 785.74 a0.687581 0.687581 -180 0 0 -0.687565 -0.687565 L0.69 785.05 a0.687581 0.687581 -180 0 0 -0.687565 0.687565 L0 799.31 Z" class="st70"/></g><g id="shape174-569" transform="translate(0,-4.23551)"><title>Sheet.174</title><path d="M1.61 800 L0.34 800 C0.17 800 0.02 799.87 0 799.7 L0 793.86 C0 793.67 0.15 793.52 0.34 793.52 L1.61 793.52 L1.61 800 Z" class="st17"/></g><g id="shape175-571" transform="translate(3.88538,-3.7089)"><title>Sheet.175</title><path d="M0.68 792.99 L0.67 799.3 L2.2 799.3 L2.2 800 L0.34 800 C0.15 799.99 0 799.84 0 799.65 C0 799.65 0 799.65 0 799.64 L0 792.65 C0 792.55 0.04 792.46 0.11 792.4 C0.16 792.33 0.25 792.29 0.34 792.3 L5.95 792.3 L5.95 792.99 L0.68 792.99 L0.68 792.99 ZM5.72 799.23 L5.72 796.16 L6.83 796.16 C7.01 796.15 7.14 795.99 7.14 795.81 L7.14 793.24 L6.48 793.24 L6.48 795.48 L5.36 795.48 C5.18 795.49 5.04 795.64 5.05 795.82 L5.05 799.64 C5.05 799.73 5.08 799.81 5.14 799.87 C5.21 799.95 5.3 799.99 5.39 799.99 L7.45 799.99 L7.45 799.23 L5.72 799.23 L5.72 799.23 Z" class="st83"/></g><g id="shape176-573" transform="translate(5.84642,-2.26176)"><title>Sheet.176</title><path d="M1.25 796.6 L1.25 799.74 C1.25 799.88 1.13 800 0.98 800 L0.27 800 C0.12 800 0 799.88 0 799.74 C0 799.74 0 799.74 0 799.74 L0 796.6 C0 796.45 0.12 796.33 0.27 796.33 L0.98 796.33 C1.13 796.33 1.25 796.45 1.25 796.6 C1.25 796.6 1.25 796.6 1.25 796.6 L1.25 796.6 ZM2.48 789.84 L2.48 792.41 C2.48 792.56 2.6 792.68 2.74 792.68 C2.74 792.68 2.74 792.68 2.74 792.68 L6.82 792.68 C6.96 792.68 7.08 792.56 7.08 792.41 L7.08 789.84 C7.08 789.69 6.96 789.58 6.82 789.58 L2.74 789.58 C2.6 789.58 2.48 789.69 2.48 789.84 C2.48 789.84 2.48 789.84 2.48 789.84 L2.48 789.84 Z" class="st84"/></g><g id="shape177-575" transform="translate(11.09,-3.2317)"><title>Sheet.177</title><ellipse cx=".863" cy="799.137" class="st13" rx=".863" ry=".863"/></g></g></g></g></svg>